<?xml version="1.0" standalone="no"?>
<!DOCTYPE svg PUBLIC "-//W3C//DTD SVG 20010904//EN"
 "http://www.w3.org/TR/2001/REC-SVG-20010904/DTD/svg10.dtd">
<svg version="1.0" xmlns="http://www.w3.org/2000/svg"
 width="2078.000000pt" height="2078.000000pt" viewBox="0 0 2078.000000 2078.000000"
 preserveAspectRatio="xMidYMid meet">
<metadata>
Created by potrace 1.11, written by Peter Selinger 2001-2013
</metadata>
<g transform="translate(0.000000,2078.000000) scale(0.100000,-0.100000)"
fill="#000000" stroke="none">
<path d="M0 12320 l0 -8460 383 4 c210 3 551 5 757 6 659 1 640 2 640 -15 0
-10 -11 -15 -32 -16 -18 0 -148 -3 -288 -6 -140 -4 -526 -7 -857 -7 l-603 -1
0 -1912 0 -1913 8513 0 c5944 0 8507 3 8497 11 -11 8 -6 9 22 7 20 -2 34 0 32
4 -3 4 1 8 9 8 27 0 70 70 75 121 5 53 -11 68 -23 22 -7 -29 -73 -103 -91
-103 -18 0 -84 61 -84 78 0 8 8 20 17 27 14 11 15 20 7 61 -10 55 -19 59 -48
21 -27 -36 -33 -124 -12 -165 9 -18 13 -32 10 -32 -4 0 1 -10 12 -22 18 -20
17 -20 -14 2 -17 13 -37 39 -44 57 -7 18 -20 35 -30 39 -10 3 -18 10 -18 15 0
6 4 8 8 5 4 -3 13 20 20 51 14 69 48 115 105 142 52 25 88 26 150 5 149 -51
157 -262 12 -342 -15 -8 469 -11 1818 -12 l1837 0 0 350 c0 252 -3 350 -11
350 -8 0 -8 4 0 13 14 18 16 3234 1 3239 -5 1 -78 1 -162 -2 -84 -3 -531 -6
-993 -7 -462 -1 -1036 -5 -1275 -9 -239 -3 -487 -5 -550 -5 -64 1 -135 -2
-158 -7 -28 -7 -44 -6 -48 0 -8 12 -152 2 -202 -13 -25 -8 -37 -8 -49 3 -13
11 -119 13 -567 11 -986 -5 -1699 -14 -1724 -24 -16 -6 -28 -6 -31 0 -4 6 -85
11 -199 12 -105 1 -192 5 -192 10 0 5 -8 9 -17 10 -14 0 -14 2 3 9 36 14 306
19 1384 25 569 3 1157 8 1305 10 149 2 619 7 1045 11 426 4 795 8 820 9 25 1
399 6 832 10 l788 8 0 29 0 29 -297 -5 c-164 -3 -955 -9 -1758 -12 -803 -4
-1514 -8 -1580 -9 -566 -9 -2715 -13 -2690 -5 17 6 48 9 70 8 22 -1 66 2 98 6
34 5 62 4 70 -1 6 -6 30 -8 52 -7 83 6 477 16 648 16 113 0 177 3 177 10 0 6
8 7 18 3 13 -5 319 -18 412 -17 8 0 256 0 550 0 294 1 542 1 550 2 67 5 318 9
794 15 317 3 567 10 577 16 10 5 20 5 23 1 5 -9 588 -9 1686 0 l595 5 3 1038
c2 920 0 1037 -13 1031 -9 -3 -15 0 -15 9 0 9 6 12 15 9 13 -5 15 64 15 545 0
332 -4 551 -9 551 -21 0 -41 -13 -41 -26 0 -27 -20 -14 -21 14 -1 16 -3 20 -6
10 -5 -19 -23 -25 -23 -8 0 6 -7 10 -15 10 -8 0 -15 5 -15 10 0 13 -37 13 -44
1 -4 -5 0 -12 6 -14 7 -3 0 -6 -17 -7 -18 -2 -23 -4 -12 -7 9 -2 17 -9 17 -15
0 -5 -8 -7 -17 -4 -15 6 -15 4 2 -14 18 -20 18 -20 -3 -20 -12 0 -22 4 -22 10
0 5 -6 7 -14 4 -9 -4 -16 3 -19 18 l-4 23 -2 -22 c0 -13 -4 -23 -8 -23 -24 1
-86 80 -63 80 21 0 9 20 -12 21 l-23 1 22 6 22 7 -25 28 -24 28 -9 -24 c-6
-14 -15 -28 -20 -32 -15 -9 -14 1 4 36 9 16 13 34 10 38 -3 5 1 12 7 15 7 4 3
4 -9 2 -27 -5 -30 6 -7 25 10 8 14 23 12 41 -4 23 1 32 23 45 l27 16 -26 24
c-23 21 -27 22 -35 8 -8 -15 -10 -15 -24 2 -10 13 -16 15 -19 6 -3 -7 -12 -13
-20 -13 -19 0 -18 -29 1 -36 12 -5 13 -10 4 -20 -6 -8 -8 -22 -3 -36 7 -21 7
-48 -1 -57 -2 -2 -18 3 -35 10 -26 12 -30 18 -25 39 4 16 3 20 -3 12 -7 -11
-10 -10 -16 3 -11 29 -7 45 13 45 21 0 45 23 34 33 -12 13 -22 7 -16 -9 4 -12
1 -15 -13 -12 -11 2 -18 11 -16 21 4 22 -15 22 -21 0 -4 -17 -5 -17 -6 0 -1
10 -9 17 -21 17 -20 0 -24 9 -20 45 3 27 7 30 23 17 8 -7 17 -9 20 -5 4 3 13
0 21 -6 16 -13 56 -6 56 10 0 5 -9 9 -20 9 -11 0 -23 7 -26 15 -4 8 -11 15
-16 15 -6 0 -8 -7 -4 -15 3 -8 0 -15 -7 -15 -9 0 -12 11 -9 37 4 31 6 34 17
20 9 -12 14 -14 23 -5 9 9 12 7 12 -9 0 -25 9 -32 44 -35 17 -2 26 -8 26 -20
0 -23 9 -23 26 -1 9 14 10 21 1 32 -9 11 -9 15 0 18 19 7 16 30 -4 42 -10 6
-12 11 -5 11 17 0 15 20 -3 40 -22 24 -27 60 -9 60 8 0 14 -10 14 -25 0 -25
16 -34 68 -38 18 -1 23 -7 20 -27 -4 -38 8 -51 38 -40 35 14 34 14 27 -20 -4
-24 -2 -30 12 -30 17 0 17 -11 0 -52 -5 -12 -2 -20 9 -24 23 -9 31 2 16 21 -9
11 -9 15 -1 15 6 0 14 -7 17 -15 4 -8 12 -15 20 -15 8 0 14 -5 14 -11 0 -5 -4
-7 -10 -4 -6 3 -7 -1 -4 -9 3 -9 12 -16 20 -16 9 0 14 -12 14 -35 0 -25 4 -35
16 -35 9 0 18 9 21 20 6 22 16 25 43 10 20 -11 50 -4 50 11 0 5 -7 9 -16 9
-11 0 -14 6 -9 20 3 11 2 20 -3 20 -5 0 -12 -9 -15 -20 -6 -23 -27 -27 -27 -6
0 8 7 21 15 30 8 8 15 22 15 32 0 10 3 14 7 11 3 -4 12 -2 20 4 14 13 18 74 4
65 -5 -3 -7 -15 -4 -26 4 -15 0 -20 -15 -20 -12 0 -24 5 -27 10 -3 6 -2 10 4
10 6 0 8 6 5 14 -5 14 23 29 66 35 6 1 10 57 10 146 0 139 -1 145 -22 156 -13
7 -35 25 -51 40 -15 16 -32 29 -37 29 -5 0 -33 23 -62 51 -29 28 -65 57 -80
65 -16 8 -28 19 -28 25 0 6 -8 6 -21 -2 -12 -6 -24 -7 -28 -3 -3 5 -10 9 -16
10 -23 3 -55 17 -55 25 0 4 -16 16 -35 25 -19 9 -35 20 -35 25 0 5 -9 9 -19 9
-11 0 -26 8 -33 18 -7 9 -20 18 -28 20 -8 2 -22 12 -32 22 -9 11 -20 20 -25
20 -5 0 -15 9 -23 20 -8 11 -20 20 -27 20 -7 0 -13 4 -13 10 0 5 -7 7 -15 4
-9 -4 -15 0 -15 10 0 9 -8 16 -20 16 -11 0 -20 6 -20 13 0 7 -18 23 -40 36
-22 12 -38 26 -35 31 3 4 -8 16 -23 26 -38 25 -201 190 -213 217 -5 12 -16 32
-23 45 l-13 23 -25 -33 c-74 -96 -408 -405 -578 -533 -50 -38 -117 -90 -148
-115 -107 -86 -245 -170 -280 -170 -8 0 -12 -3 -9 -7 7 -6 -45 -35 -66 -37 -4
-1 -11 -6 -15 -12 -8 -14 -135 -74 -155 -74 -8 0 -20 -6 -26 -14 -6 -8 -26
-19 -44 -26 -18 -7 -61 -26 -97 -43 -36 -16 -75 -33 -87 -38 -13 -5 -23 -14
-23 -20 0 -6 -7 -8 -15 -5 -9 3 -23 1 -33 -4 -32 -18 -97 -43 -106 -41 -5 1
-27 -5 -48 -14 -22 -8 -57 -18 -78 -20 -21 -3 -49 -9 -62 -13 -13 -5 -43 -10
-67 -11 -25 -1 -48 -4 -53 -7 -21 -13 -126 -11 -192 3 -39 8 -86 16 -104 18
-19 1 -42 9 -53 19 -17 14 -57 19 -111 14 -9 -1 -20 -8 -22 -15 -3 -8 -2 -11
3 -8 5 3 12 -4 16 -15 9 -27 -3 -62 -18 -53 -8 4 -7 1 1 -9 9 -12 12 -39 8
-97 -3 -48 -1 -81 5 -83 15 -5 -1 -38 -18 -38 -10 0 -13 6 -9 16 6 15 4 15
-10 3 -14 -11 -18 -11 -30 5 -7 11 -11 23 -7 29 3 5 -2 7 -13 3 -14 -4 -22 2
-31 21 -15 32 -16 43 -4 43 5 0 11 -9 14 -20 6 -23 37 -27 37 -5 0 8 -5 15
-11 15 -5 0 -8 3 -6 8 3 4 1 16 -4 27 -6 17 -8 17 -8 2 -1 -15 -4 -15 -21 -5
-11 7 -20 20 -21 28 -1 8 -4 4 -8 -10 l-7 -25 -13 23 c-14 27 -8 40 26 53 30
11 26 29 -10 47 -29 14 -31 20 -18 40 6 11 10 10 15 -3 5 -14 9 -15 20 -6 11
9 15 9 19 -1 3 -7 6 -4 6 7 1 12 -10 27 -25 36 -21 13 -23 17 -10 22 9 4 16 2
16 -4 0 -6 7 -3 16 6 13 12 14 19 5 28 -6 6 -11 8 -11 4 0 -4 -12 4 -27 18
-34 30 -40 31 -48 4 -4 -11 -13 -18 -20 -16 -8 3 -13 -3 -14 -16 -1 -19 -5
-51 -10 -79 -2 -15 -31 -8 -31 7 0 8 -4 15 -10 15 -5 0 -10 -4 -10 -10 0 -5
-10 -10 -22 -10 -17 0 -19 3 -9 9 7 5 10 14 7 20 -5 7 1 11 14 11 12 0 18 4
15 10 -3 5 -1 19 5 30 9 16 8 19 -5 13 -11 -4 -18 1 -22 16 -3 11 -9 21 -14
21 -15 0 -10 18 7 24 9 4 23 1 31 -5 10 -9 17 -9 25 -1 9 9 7 12 -10 12 -12 0
-22 5 -22 11 0 6 -9 8 -22 3 -22 -6 -22 -6 -5 13 17 20 17 21 -14 44 -17 13
-36 29 -43 35 -6 6 -21 14 -33 18 -11 4 -23 15 -26 25 -2 11 -19 27 -36 35
-17 9 -46 31 -64 49 -18 17 -57 52 -87 77 -29 25 -79 68 -109 96 -31 28 -73
67 -94 85 -147 132 -462 459 -562 584 -27 33 -60 72 -74 86 -35 35 -114 128
-158 186 -20 26 -39 50 -42 53 -9 8 -84 101 -101 126 -8 12 -33 44 -55 71 -22
28 -47 60 -55 73 -8 12 -22 30 -30 40 -8 10 -22 27 -30 37 -8 10 -23 31 -33
46 -10 16 -27 37 -37 47 -10 10 -37 46 -61 80 -24 34 -54 77 -67 94 -12 17
-32 46 -43 64 -12 17 -25 32 -29 32 -5 0 -11 8 -14 18 -4 9 -19 31 -34 48 -15
18 -34 42 -42 55 -8 12 -35 50 -60 83 -25 34 -52 71 -60 82 -39 56 -105 139
-112 142 -4 2 -8 8 -8 12 0 5 -27 48 -60 95 -33 47 -60 89 -60 93 0 5 -8 17
-17 28 -10 10 -29 39 -42 64 -13 25 -36 63 -51 85 -27 40 -74 122 -117 204
-12 24 -27 48 -32 55 -5 6 -27 46 -49 88 -22 42 -47 85 -56 94 -10 9 -15 23
-12 30 3 8 0 11 -10 7 -10 -4 -14 2 -14 19 0 14 -8 33 -19 42 -10 9 -21 30
-24 46 -4 15 -18 41 -33 56 -14 16 -35 47 -46 69 -12 22 -24 42 -28 45 -4 3
-22 35 -40 73 -18 37 -37 67 -41 67 -5 0 -22 26 -39 58 -17 31 -39 71 -50 87
-11 17 -25 41 -32 55 -7 14 -15 27 -18 30 -10 10 -31 45 -36 63 -4 9 -10 17
-14 17 -5 0 -19 21 -32 48 -13 26 -29 51 -35 55 -7 4 -13 14 -13 22 0 7 -19
42 -43 77 -23 35 -55 89 -71 121 -16 33 -35 61 -42 64 -7 2 -16 18 -19 34 -4
16 -10 29 -15 29 -10 0 -40 57 -40 75 0 7 -7 15 -15 19 -8 3 -15 12 -15 19 0
8 -7 20 -15 27 -9 7 -13 15 -11 18 3 2 -6 19 -20 38 -14 18 -23 38 -20 43 4 5
0 13 -7 18 -15 9 -77 97 -77 110 0 4 -11 20 -25 35 -14 15 -25 30 -25 33 0 8
-63 89 -72 93 -5 2 -8 8 -8 13 0 8 -60 100 -114 172 -12 18 -35 57 -51 87 -15
30 -40 73 -54 95 -15 22 -38 63 -51 90 -14 28 -31 56 -37 63 -7 7 -13 18 -13
23 0 5 -10 26 -23 47 -32 51 -71 143 -69 165 0 9 -4 15 -9 11 -15 -9 -6 48 11
68 29 36 120 15 120 -27 0 -15 16 -55 56 -140 13 -28 24 -56 24 -63 0 -6 5
-12 10 -12 6 0 10 -7 10 -15 0 -9 9 -33 20 -54 10 -21 17 -41 14 -43 -2 -3 2
-11 11 -18 8 -7 15 -21 15 -31 0 -10 5 -21 10 -24 6 -4 8 -15 5 -24 -7 -24 4
-51 21 -51 19 0 18 -17 -2 -28 -14 -8 -14 -10 0 -25 9 -9 15 -20 14 -25 -2 -6
0 -10 5 -11 23 -3 27 1 13 15 -15 15 -22 44 -11 44 11 0 55 -49 55 -60 0 -6 5
-8 11 -5 14 9 49 -24 49 -45 0 -10 7 -23 15 -30 8 -7 15 -19 15 -26 0 -8 5
-14 11 -14 5 0 7 -5 3 -12 -4 -6 -3 -8 3 -5 9 6 103 -113 103 -131 0 -4 11
-19 25 -34 14 -15 25 -31 25 -36 0 -5 14 -28 30 -50 17 -23 27 -42 23 -42 -5
0 -3 -4 3 -8 12 -9 104 -161 104 -173 0 -5 4 -9 9 -9 5 0 11 -8 15 -17 3 -10
37 -70 76 -133 39 -63 82 -135 95 -160 41 -72 163 -274 173 -286 6 -6 20 -31
32 -55 13 -24 29 -48 36 -52 8 -4 14 -15 14 -23 0 -9 9 -27 20 -41 11 -14 20
-32 20 -39 0 -8 5 -14 10 -14 6 0 10 -4 10 -9 0 -5 22 -45 48 -88 26 -43 51
-85 55 -93 4 -8 16 -28 27 -45 18 -27 37 -60 88 -150 9 -16 19 -32 22 -35 3
-3 11 -16 18 -30 17 -32 30 -55 70 -116 17 -28 32 -54 32 -57 0 -3 13 -25 29
-49 16 -24 46 -74 67 -113 21 -38 42 -74 46 -80 5 -5 47 -75 95 -155 75 -126
125 -203 143 -220 3 -3 21 -30 40 -60 19 -30 37 -57 41 -60 3 -3 66 -88 138
-190 73 -102 140 -192 149 -200 9 -8 26 -32 37 -52 11 -20 34 -51 50 -70 17
-18 33 -37 35 -43 2 -5 8 -14 12 -20 21 -24 165 -220 202 -275 13 -19 40 -53
60 -75 20 -22 36 -43 36 -47 0 -7 8 -17 55 -69 8 -9 15 -21 15 -27 0 -7 3 -12
8 -12 4 0 29 -27 56 -61 27 -33 63 -76 80 -94 53 -57 106 -123 106 -131 0 -5
20 -29 44 -54 24 -25 80 -83 123 -129 125 -135 300 -310 414 -417 221 -208
290 -267 395 -345 60 -44 116 -85 125 -92 38 -29 218 -123 299 -155 164 -66
377 -68 572 -8 25 8 62 17 81 20 19 3 47 11 63 18 16 6 34 13 39 13 6 1 23 7
38 13 16 7 32 12 37 12 5 0 30 10 57 22 26 11 53 22 60 24 6 1 39 18 73 38 35
20 65 35 67 32 4 -4 128 53 188 87 11 6 34 17 50 25 17 9 49 28 72 44 23 15
48 28 56 28 7 0 24 11 37 25 13 14 28 25 34 25 19 1 218 151 364 274 46 39
109 91 139 115 31 24 114 100 184 169 141 137 143 143 88 190 -16 13 -27 27
-24 32 3 4 -2 11 -11 14 -8 3 -13 10 -10 15 3 5 -1 12 -10 15 -8 3 -13 10 -9
16 3 5 -4 20 -16 32 -12 13 -19 17 -15 11 5 -9 2 -11 -8 -7 -8 3 -12 12 -9 20
3 8 -7 30 -21 48 -14 19 -26 41 -26 49 0 8 -7 17 -15 21 -8 3 -15 14 -15 24 0
10 -9 28 -20 40 -11 12 -20 29 -20 39 0 10 -11 35 -25 55 -14 20 -25 42 -25
47 0 6 -13 36 -30 66 -17 30 -30 64 -30 75 0 10 -4 22 -10 25 -5 3 -21 32 -35
63 -14 31 -35 77 -46 102 -35 77 -45 101 -94 230 -26 69 -52 129 -56 134 -5 6
-9 18 -9 28 0 10 -14 62 -32 115 -17 54 -33 107 -35 118 -2 11 -10 36 -18 55
-18 43 -45 147 -45 175 0 12 -4 25 -10 31 -5 5 -14 30 -19 54 -6 25 -24 106
-41 180 -17 74 -36 158 -41 185 -6 28 -14 70 -20 95 -5 25 -14 69 -19 97 -4
29 -15 85 -24 125 -24 109 -66 318 -71 358 -3 19 -12 85 -20 145 -20 160 -55
388 -60 403 -3 7 -15 113 -27 235 -35 352 -30 757 12 997 33 191 45 247 77
355 19 66 41 136 48 155 7 19 26 69 41 110 31 84 144 323 156 328 5 2 8 12 8
22 0 9 7 23 15 30 8 7 15 17 15 22 0 6 27 50 60 100 33 49 60 93 60 96 0 4 9
14 20 22 11 8 20 18 20 23 0 12 52 79 78 100 12 10 22 22 22 26 0 33 314 341
455 447 207 156 366 258 548 355 248 131 322 172 405 220 45 27 87 49 91 49 5
0 11 4 13 8 2 5 29 23 61 41 l57 32 0 2350 0 2349 -2650 0 -2650 0 -54 -35
c-30 -19 -58 -35 -62 -35 -9 0 -145 -99 -173 -127 -13 -12 -26 -23 -30 -24
-39 -5 -281 -2 -281 4 0 5 -4 6 -8 3 -5 -3 -49 15 -98 39 -49 25 -97 45 -106
45 -24 0 -108 61 -136 99 l-23 31 -7254 0 -7255 0 0 -8460z m12820 6241 c47
-17 91 -35 98 -40 20 -12 23 -56 28 -388 l4 -301 29 -65 c25 -57 34 -66 72
-82 74 -29 208 -24 579 24 85 11 180 22 210 25 30 3 93 10 140 16 118 16 547
17 562 2 7 -7 27 -12 45 -12 18 0 41 -4 51 -9 9 -5 36 -15 60 -22 24 -7 50
-22 58 -33 8 -11 14 -17 14 -13 0 4 14 -5 31 -20 17 -16 35 -27 40 -25 5 1 9
-8 10 -20 1 -21 2 -20 14 6 12 28 13 29 19 8 4 -12 16 -26 26 -32 10 -5 21
-24 25 -41 5 -21 11 -29 21 -25 8 3 13 2 10 -3 -3 -5 1 -14 9 -21 8 -7 15 -20
15 -29 0 -10 11 -28 24 -40 15 -14 29 -44 36 -74 6 -28 17 -58 24 -67 20 -23
56 -142 52 -173 -1 -15 -12 -38 -23 -51 -12 -13 -24 -32 -27 -42 -3 -11 -18
-32 -32 -49 -23 -26 -25 -35 -18 -75 4 -25 7 -54 7 -65 -1 -11 3 -42 8 -70 5
-27 11 -102 14 -165 3 -63 8 -137 11 -165 11 -123 17 -1000 9 -1650 -2 -203
-4 -392 -4 -419 0 -26 -5 -92 -12 -145 -6 -53 -13 -116 -15 -141 -9 -102 -11
-118 -23 -175 -7 -33 -17 -74 -22 -92 l-10 -31 -89 0 c-78 0 -89 2 -93 19 -6
22 -27 26 -27 5 0 -8 -7 -17 -16 -20 -9 -3 -12 -2 -9 4 4 6 -8 2 -26 -9 -17
-11 -37 -17 -44 -15 -7 3 -16 1 -20 -5 -3 -6 -11 -11 -16 -11 -6 0 -7 4 -4 10
4 6 -2 7 -17 1 -42 -16 -145 -23 -166 -12 -14 7 -22 7 -24 1 -2 -6 -41 -13
-88 -16 -47 -2 -92 -5 -100 -5 -8 -1 -64 -1 -125 0 -60 0 -121 0 -135 -1 -14
0 -52 3 -84 6 -41 5 -61 4 -66 -4 -6 -9 -13 -9 -29 -1 -12 7 -81 14 -154 16
-143 4 -277 13 -317 20 -14 2 -72 7 -130 11 -117 6 -205 13 -205 14 0 1 -36 3
-80 6 -44 2 -98 6 -120 9 -133 14 -162 14 -220 -4 -33 -10 -65 -16 -72 -14
-18 7 -16 40 2 47 9 3 25 21 36 41 18 30 26 35 60 35 28 0 45 7 64 25 28 29
30 35 15 53 -7 9 -7 9 2 2 18 -15 27 -12 23 9 -3 14 1 18 16 14 11 -3 29 2 40
13 24 22 117 161 146 219 22 44 65 161 68 185 2 17 12 47 25 71 4 9 4 22 -1
30 -12 19 -11 32 1 24 6 -3 10 0 10 8 0 12 -7 11 -37 -4 -21 -10 -51 -19 -68
-19 -23 0 -41 -10 -69 -40 -21 -22 -42 -40 -46 -40 -5 0 -11 -8 -14 -17 -3
-10 -17 -30 -30 -44 -93 -100 -173 -368 -119 -398 26 -14 7 -26 -25 -15 -26 9
-27 13 -26 69 2 64 20 177 33 210 25 60 31 77 31 91 0 15 33 65 75 114 33 37
39 60 15 57 -11 -2 -23 -6 -26 -10 -4 -4 -18 -7 -30 -7 -25 0 -43 26 -51 71
-7 44 11 65 59 73 78 13 152 20 197 18 34 -1 51 4 73 23 16 14 36 25 44 25 8
0 14 5 14 10 0 18 29 10 35 -10 7 -21 46 -23 53 -2 2 7 13 12 25 12 18 0 19
-2 7 -10 -11 -7 -5 -9 22 -8 21 1 35 5 32 10 -3 4 0 8 5 8 6 0 11 -4 11 -10 0
-5 7 -7 15 -4 9 4 18 -1 21 -10 5 -13 14 -15 38 -10 17 3 35 9 40 12 18 10 89
12 101 2 11 -9 63 -7 116 6 15 3 30 1 33 -5 9 -14 36 -14 36 0 0 5 -4 7 -10 4
-5 -3 -7 0 -5 8 4 9 23 13 58 13 41 -1 58 4 77 22 20 18 32 21 74 18 27 -3 53
-11 59 -18 6 -9 7 -8 3 5 -5 16 -2 18 24 12 30 -7 51 5 63 35 4 12 6 11 6 -3
1 -17 2 -17 18 -1 10 10 19 12 21 6 5 -15 42 18 42 38 0 8 -9 21 -20 28 -18
11 -20 20 -15 73 4 34 10 82 15 108 4 25 7 48 5 51 -8 12 -13 410 -6 414 4 3
17 -1 28 -9 22 -15 28 -38 42 -145 10 -76 8 -468 -2 -490 -6 -12 -1 -15 20
-15 16 1 40 6 54 12 55 24 239 10 239 -18 0 -6 -13 -15 -30 -20 -16 -6 -30
-15 -30 -21 0 -6 -6 -8 -14 -5 -8 3 -20 -1 -26 -9 -7 -8 -20 -14 -29 -15 -10
0 -11 -2 -3 -6 6 -2 12 -9 12 -14 0 -6 -5 -7 -11 -3 -11 6 -58 -13 -70 -29 -8
-11 -152 -46 -162 -40 -4 2 -11 -7 -17 -22 -13 -33 -56 -71 -98 -86 -38 -13
-57 -2 -28 15 62 35 87 87 41 84 -14 -1 -25 -5 -25 -9 0 -4 -26 -10 -57 -14
-32 -3 -96 -13 -143 -20 -47 -7 -132 -21 -190 -30 -58 -8 -125 -20 -150 -26
-69 -15 -210 -18 -210 -5 0 7 -4 6 -9 -2 -5 -8 -17 -11 -34 -7 -30 8 -40 -7
-55 -80 -16 -75 -41 -164 -61 -209 -10 -23 -27 -61 -37 -86 -15 -38 -51 -103
-89 -162 -37 -56 -71 -106 -86 -123 -18 -20 -17 -20 39 -20 56 0 143 -6 387
-25 66 -5 182 -12 258 -15 167 -6 839 -7 858 -1 8 3 115 8 239 11 297 9 300 9
316 60 23 73 54 572 59 955 3 201 7 462 11 580 7 258 6 1148 -1 1160 -3 4 -5
34 -6 67 0 57 -8 135 -49 484 -12 96 -23 212 -24 258 -3 78 -5 84 -36 116
-114 118 -406 168 -780 134 -69 -6 -150 -12 -180 -14 -236 -12 -316 -17 -390
-26 -47 -5 -103 -11 -125 -13 -22 -2 -73 -9 -114 -16 -74 -12 -160 -7 -210 12
-27 9 -81 65 -81 83 0 5 -24 33 -52 63 l-53 53 -2 177 c-2 97 2 218 8 267 6
50 13 109 16 131 4 38 2 44 -30 68 -36 28 -140 74 -196 87 -53 12 -76 -3 -109
-73 -52 -109 -64 -196 -76 -568 -2 -63 0 -124 4 -135 4 -11 4 -33 -1 -50 -4
-16 -10 -42 -13 -57 -4 -16 -12 -28 -20 -28 -7 0 -20 -8 -29 -18 -9 -10 -38
-28 -64 -41 -27 -12 -55 -26 -64 -31 -9 -5 -34 -12 -55 -16 -22 -4 -41 -10
-44 -15 -5 -8 -34 -12 -190 -28 -113 -12 -359 -13 -505 -1 -71 5 -168 12 -215
15 -47 3 -131 11 -187 16 -56 6 -147 12 -202 12 l-100 2 -31 -33 c-16 -18 -30
-39 -30 -46 0 -6 -9 -29 -20 -51 -25 -50 -27 -140 -4 -167 16 -16 16 -18 0
-24 -9 -3 -28 -3 -42 0 l-26 7 4 127 c4 140 17 177 67 188 14 3 49 13 76 22
69 23 365 22 595 -3 149 -16 508 -22 612 -10 111 13 124 14 158 21 19 4 40 10
45 14 6 4 25 10 44 14 65 12 121 48 149 96 l27 45 1 275 c1 154 6 297 12 326
22 103 85 234 113 234 9 0 36 9 60 20 58 27 119 22 229 -19z m-2064 -1413 c-3
-13 -8 -97 -11 -188 -11 -328 -17 -429 -29 -433 -17 -7 -56 11 -63 29 -3 9 -1
104 6 212 6 109 13 234 15 280 5 101 10 109 79 121 4 0 5 -9 3 -21z m3217 -72
c4 -10 20 -14 51 -13 25 1 46 5 46 10 0 4 20 7 44 7 59 0 136 -56 136 -100 0
-17 -3 -30 -7 -30 -4 0 -23 15 -43 34 -20 19 -53 38 -77 44 -24 5 -43 9 -43 7
0 -1 8 -11 18 -23 9 -11 28 -36 42 -53 14 -18 34 -43 46 -56 73 -79 173 -257
206 -368 17 -58 19 -150 4 -227 -15 -76 -78 -218 -98 -218 -5 0 -6 -5 -3 -10
4 -6 0 -22 -9 -35 -9 -13 -16 -30 -16 -38 0 -8 -17 -26 -37 -40 -21 -15 -34
-27 -30 -27 5 0 2 -7 -7 -15 -8 -8 -19 -15 -25 -15 -6 0 -15 -9 -21 -19 -5
-11 -20 -23 -32 -26 -13 -4 -39 -14 -58 -23 -21 -9 -63 -16 -105 -16 -57 -1
-76 3 -100 21 -16 12 -57 29 -90 38 -33 9 -62 20 -65 24 -3 4 -25 19 -50 34
-110 65 -199 182 -244 320 -57 175 -58 321 -1 452 7 17 18 45 25 63 7 17 16
32 20 32 4 0 12 11 18 24 15 33 172 162 224 185 24 10 61 21 83 25 22 4 45 12
52 18 7 5 16 7 20 5 5 -3 19 1 33 9 33 18 86 18 93 0z m-2149 -82 c14 -5 17
-4 12 4 -4 8 0 12 11 12 33 0 63 -12 56 -23 -3 -6 -1 -7 6 -3 6 4 23 0 37 -9
15 -9 34 -15 45 -12 10 3 19 2 21 -2 4 -9 86 -61 97 -61 10 0 143 -133 187
-187 39 -49 100 -169 115 -224 48 -188 56 -303 28 -417 -12 -48 -29 -98 -38
-112 -10 -14 -25 -42 -34 -62 -22 -46 -65 -98 -82 -98 -28 0 -22 31 17 82 62
81 86 142 97 243 5 50 8 104 6 120 -2 17 -7 55 -10 85 -10 84 -51 206 -97 295
-46 87 -159 204 -240 247 -39 21 -143 56 -178 60 -21 2 -25 -1 -23 -19 4 -32
-14 -28 -32 7 -9 17 -22 30 -29 30 -18 0 -65 -55 -71 -83 -2 -12 -12 -53 -21
-92 -20 -80 -27 -442 -9 -453 16 -10 85 -11 85 -1 0 13 54 11 66 -1 6 -6 26
-12 45 -13 19 -1 40 -6 48 -11 7 -5 54 -10 103 -11 70 -2 96 1 125 16 39 20
65 23 126 13 22 -4 37 -12 37 -20 0 -8 -4 -14 -10 -14 -5 0 -7 -7 -3 -16 5
-13 2 -15 -15 -9 -14 4 -22 2 -22 -5 0 -6 -8 -19 -17 -30 -16 -16 -24 -17 -68
-8 -27 5 -108 10 -179 9 -81 0 -135 4 -143 10 -9 8 -13 8 -13 0 0 -15 -137
-15 -142 1 -2 6 -13 12 -25 13 -19 1 -20 0 -7 -31 8 -19 14 -36 14 -39 0 -11
-40 -4 -41 8 -1 6 -3 19 -4 27 -1 8 -3 24 -4 35 -1 18 -8 20 -93 21 -95 1
-106 2 -218 28 -54 12 -58 15 -23 13 23 -1 39 2 36 7 -4 5 5 6 20 2 14 -3 29
-2 32 4 6 10 175 10 175 -1 0 -3 7 -6 15 -6 8 0 12 4 9 9 -3 4 1 8 10 8 8 0
17 -6 19 -12 9 -21 27 14 20 37 -10 30 -5 257 8 333 5 37 13 85 16 107 3 21
12 57 19 78 22 62 20 67 -30 63 -109 -8 -244 -88 -323 -192 -66 -85 -91 -166
-69 -216 6 -13 4 -18 -8 -18 -10 0 -23 14 -31 33 -11 27 -11 43 -1 92 13 62
61 165 77 165 5 0 9 5 9 10 0 13 74 86 120 118 39 27 131 62 165 62 11 0 25 4
31 9 19 20 133 16 188 -5z m-644 -212 c0 -4 -7 -17 -15 -28 -8 -12 -12 -33 -9
-49 3 -15 1 -32 -5 -39 -13 -17 -31 -113 -32 -179 -1 -31 -6 -60 -11 -63 -14
-9 -48 26 -41 42 3 8 0 14 -7 14 -9 0 -10 4 -2 13 7 7 9 29 6 49 -4 23 0 46
10 67 9 17 14 36 11 41 -4 6 1 17 9 25 8 9 13 22 10 30 -5 13 5 19 27 17 4 -1
5 7 2 17 -2 10 3 25 12 35 17 17 35 21 35 8z m880 -466 c0 -3 -4 -8 -10 -11
-5 -3 -10 -1 -10 4 0 6 5 11 10 11 6 0 10 -2 10 -4z m194 -525 c3 -5 0 -14 -8
-20 -10 -9 -17 -7 -27 6 -9 11 -10 14 -1 9 6 -4 12 -2 12 3 0 13 17 14 24 2z
m1752 -174 c-1 -10 -7 -21 -14 -26 -14 -8 -12 -52 2 -62 5 -4 -40 -7 -100 -6
-60 0 -145 -2 -189 -6 -44 -4 -118 -9 -165 -12 -47 -3 -130 -10 -185 -15 -55
-6 -179 -17 -275 -26 -96 -8 -182 -17 -190 -19 -8 -2 -55 -7 -105 -10 -49 -3
-97 -8 -105 -10 -8 -2 -53 -7 -100 -10 -47 -3 -118 -10 -157 -16 -40 -6 -83
-7 -94 -4 -16 5 -19 4 -14 -5 6 -10 0 -12 -25 -6 -43 8 -49 15 -27 30 9 7 17
18 17 25 0 14 6 14 31 1 13 -8 19 -7 19 0 0 6 12 5 33 -3 20 -9 41 -11 55 -6
12 5 29 6 37 3 11 -5 15 1 15 21 0 25 3 27 28 21 32 -8 34 -8 95 -3 26 2 47 0
47 -5 0 -5 7 -5 17 0 9 6 29 6 45 2 21 -7 28 -5 28 6 0 8 6 14 13 15 6 0 20 2
30 4 13 2 17 -1 13 -11 -4 -11 -2 -12 14 -4 10 5 22 15 25 20 4 6 11 7 17 4 6
-4 13 -1 17 5 6 9 15 8 36 -3 21 -11 31 -12 36 -4 4 6 12 7 18 4 6 -4 11 -2
11 3 0 6 20 11 45 11 25 0 45 4 45 9 0 7 119 24 165 23 10 -1 24 3 31 9 7 6
21 6 38 -1 34 -12 39 -13 31 -1 -8 14 22 21 116 26 89 5 130 10 237 31 17 3
32 11 32 17 0 6 23 8 65 4 43 -4 65 -3 65 4 0 6 10 9 23 6 12 -2 47 -2 77 2
58 6 78 -2 76 -32z m-956 -867 c0 -5 -2 -10 -4 -10 -3 0 -8 5 -11 10 -3 6 -1
10 4 10 6 0 11 -4 11 -10z m-473 -175 c0 -8 -4 -15 -9 -15 -4 0 -8 7 -8 15 0
8 4 15 8 15 5 0 9 -7 9 -15z m-2658 -104 c9 -9 32 -16 51 -16 19 0 49 -5 67
-12 17 -7 54 -11 82 -9 47 3 50 2 41 -15 -6 -10 -17 -16 -25 -13 -9 4 -15 0
-15 -10 0 -20 14 -21 34 -1 22 22 39 18 69 -16 l28 -32 24 23 c13 12 35 23 49
23 15 0 26 4 26 9 0 6 10 8 22 5 13 -4 26 0 32 9 13 17 36 20 82 10 17 -3 63
-8 103 -10 41 -3 74 -7 75 -8 11 -27 27 -44 47 -48 15 -4 23 -12 21 -23 -3
-19 9 -22 25 -6 8 8 10 1 8 -27 -2 -22 1 -42 7 -45 9 -6 8 -11 -1 -22 -8 -11
-9 -17 -1 -22 21 -13 -9 -32 -51 -32 -23 0 -44 -6 -48 -12 -4 -7 -23 -11 -42
-10 -19 2 -41 -1 -49 -6 -10 -6 -12 -4 -6 10 5 13 3 15 -6 8 -7 -5 -26 -8 -43
-8 -16 1 -36 -3 -44 -9 -12 -9 -13 -8 -6 4 7 12 6 13 -6 3 -24 -20 -146 -42
-158 -30 -8 8 -11 8 -11 0 0 -18 -43 -23 -60 -8 -13 11 -24 12 -51 5 -43 -13
-42 -13 -36 3 3 8 1 20 -4 28 -7 11 -9 11 -9 1 0 -7 -4 -11 -9 -8 -13 8 -42
-4 -35 -15 3 -5 -2 -9 -10 -9 -9 0 -16 7 -16 15 0 9 -6 12 -17 8 -16 -6 -16
-4 1 15 11 12 16 25 13 28 -7 8 -37 -21 -37 -35 0 -18 -14 -13 -28 9 -12 20
-43 23 -69 7 -30 -19 -141 5 -158 34 -4 5 -15 9 -27 9 -11 0 -29 11 -39 24
-11 14 -34 26 -59 30 -31 5 -40 11 -40 26 0 11 -10 25 -22 31 -13 7 -26 16
-29 21 -3 5 -14 -1 -24 -12 -11 -12 -13 -20 -6 -20 27 0 -13 -25 -44 -27 -39
-3 -66 20 -40 34 15 9 15 11 1 22 -11 9 -16 10 -16 2 0 -6 -5 -11 -11 -11 -5
0 -8 4 -4 10 3 5 -6 17 -20 26 -23 15 -24 19 -12 33 8 9 22 31 32 50 16 32 19
33 60 29 23 -3 50 -1 59 4 12 7 16 5 16 -7 0 -8 7 -15 15 -15 10 0 12 6 8 18
-6 15 -5 15 10 3 11 -8 17 -9 17 -2 0 7 8 8 23 2 12 -4 31 -6 42 -3 35 9 185
7 185 -2 0 -5 10 -2 23 7 13 9 23 11 26 5 2 -6 11 -18 20 -27z m891 -231 c0
-5 -5 -10 -11 -10 -5 0 -7 5 -4 10 3 6 8 10 11 10 2 0 4 -4 4 -10z m-712 -637
c13 -14 27 -21 35 -17 6 4 9 4 5 -1 -4 -4 4 -27 17 -52 14 -24 25 -50 25 -58
0 -8 4 -15 8 -15 9 0 13 -29 13 -92 -1 -29 4 -48 10 -48 7 0 10 -13 7 -33 -2
-20 2 -39 10 -46 11 -11 10 -16 -7 -28 -23 -15 -19 -38 5 -29 7 3 17 0 21 -7
10 -17 10 -86 0 -80 -5 3 -4 -5 3 -17 10 -18 9 -24 -1 -31 -11 -8 -11 -11 4
-20 9 -5 17 -21 17 -34 0 -13 6 -26 13 -28 9 -4 8 -8 -3 -16 -8 -6 -10 -11 -5
-12 6 0 -1 -4 -15 -8 -14 -4 -26 -16 -28 -26 -3 -19 -2 -19 11 -2 8 9 18 17
22 17 4 0 2 -6 -4 -13 -6 -8 -8 -17 -4 -20 3 -4 0 -7 -8 -7 -12 0 -12 -2 0 -9
7 -5 13 -22 13 -37 0 -31 27 -64 53 -64 20 0 20 -39 0 -46 -17 -7 -21 -44 -5
-44 23 0 7 -17 -30 -34 -22 -10 -38 -21 -35 -25 2 -5 -7 -6 -20 -3 -13 2 -38
-1 -56 -7 -24 -8 -38 -7 -65 4 -19 8 -34 11 -34 7 0 -4 -4 -1 -9 6 -6 11 -15
9 -42 -7 -36 -22 -113 -29 -124 -11 -4 6 -11 8 -16 4 -6 -3 -19 3 -30 15 -11
12 -28 21 -39 21 -12 0 -20 8 -22 22 -4 27 -63 45 -72 22 -3 -8 -16 -14 -30
-14 -13 0 -26 -5 -28 -12 -3 -9 -12 -9 -36 1 -18 7 -32 17 -32 21 0 4 -15 13
-32 20 -70 28 -98 43 -98 54 0 15 -45 66 -58 66 -17 0 -22 28 -5 34 12 5 13 9
3 21 -10 12 -9 16 3 21 9 3 18 12 21 20 3 8 1 12 -4 9 -5 -3 -7 1 -4 9 3 9 12
12 22 9 9 -4 14 -3 10 1 -8 10 23 47 34 40 4 -3 16 12 25 33 10 21 25 44 33
51 13 12 13 13 -4 8 -11 -4 -30 1 -45 11 -33 23 -91 43 -91 32 0 -4 -8 -8 -17
-8 -10 0 -38 -4 -62 -9 -25 -6 -51 -8 -59 -5 -8 3 -18 0 -22 -7 -4 -7 -22 -13
-39 -14 -19 -1 -31 -6 -31 -15 0 -7 -6 -11 -15 -8 -8 4 -17 2 -20 -4 -4 -5
-10 -7 -14 -4 -13 7 -71 -25 -71 -40 0 -9 -12 -13 -37 -12 -20 1 -38 -4 -40
-10 -2 -6 -21 -9 -44 -7 -34 3 -41 0 -49 -20 -4 -13 -18 -26 -29 -29 -18 -4
-30 2 -79 44 -10 8 -17 8 -25 0 -16 -16 -27 -13 -20 6 4 11 3 14 -5 9 -16 -10
-83 4 -76 16 3 5 -3 12 -15 15 -12 3 -21 13 -21 24 0 12 -5 16 -15 13 -21 -8
-19 -44 3 -45 14 0 14 -2 -3 -8 -25 -10 -26 -10 -28 25 -3 31 -24 44 -33 20
-3 -9 -15 -16 -27 -16 -19 0 -19 1 -4 18 21 23 22 33 2 26 -9 -4 -15 0 -15 9
0 8 7 18 16 21 12 5 15 14 10 36 -5 25 1 36 36 70 22 23 47 39 54 36 8 -3 14
1 14 10 0 8 5 12 10 9 6 -3 10 -1 10 4 0 6 10 11 22 11 20 0 19 3 -12 29 -31
26 -33 30 -16 37 11 4 21 2 27 -7 6 -10 9 -8 9 10 0 16 4 21 14 18 8 -3 17 -1
20 6 2 7 5 4 5 -5 1 -17 41 -46 41 -30 0 5 21 8 47 6 32 -2 43 0 33 6 -8 6
-10 10 -5 10 6 0 16 -5 23 -12 15 -15 29 -17 125 -21 43 -1 81 1 84 6 3 5 10
4 16 -2 14 -14 44 -14 49 -1 2 5 18 10 36 12 17 1 32 6 32 10 0 4 11 2 25 -4
14 -6 25 -17 25 -25 0 -7 5 -13 10 -13 6 0 10 7 10 15 0 8 8 15 18 15 10 0 22
3 26 7 9 10 41 14 121 16 55 2 69 5 67 16 -3 12 0 12 12 2 9 -7 13 -17 10 -22
-3 -5 1 -6 9 -3 10 3 14 -3 15 -23 1 -31 26 -86 35 -77 3 3 12 2 19 -2 20 -13
58 -16 71 -6 7 4 28 9 47 11 21 1 40 10 49 22 7 10 22 19 32 19 14 0 78 24 98
37 2 1 -1 9 -7 16 -13 15 -6 28 11 21 7 -2 12 8 13 26 1 17 9 38 18 48 9 10
16 24 16 30 0 7 12 31 26 54 20 31 24 46 17 57 -8 13 -4 18 21 28 38 14 64 7
94 -24z m2221 -213 c5 -17 11 -34 11 -38 1 -4 7 -13 13 -21 12 -14 28 -64 49
-151 6 -25 16 -48 23 -52 7 -4 10 -18 8 -32 -3 -13 0 -27 6 -30 6 -4 11 -25
11 -47 0 -21 5 -39 10 -39 6 0 10 -9 10 -19 0 -11 5 -23 10 -26 6 -3 10 -15
10 -26 0 -10 4 -27 9 -37 5 -9 13 -35 19 -57 33 -124 62 -218 71 -229 5 -6 17
-43 27 -81 9 -39 20 -72 24 -75 4 -3 10 -18 12 -35 17 -96 34 -154 55 -185 13
-19 22 -42 20 -52 -3 -10 -1 -16 4 -12 5 3 9 -1 9 -9 0 -8 7 -28 16 -46 9 -18
14 -41 11 -52 -5 -17 -3 -18 10 -7 14 11 16 10 9 -15 -5 -21 -4 -27 5 -21 8 5
10 -1 7 -20 -3 -14 -1 -29 3 -32 5 -3 14 -14 20 -26 8 -15 8 -19 0 -14 -6 4
-11 0 -11 -9 0 -8 7 -18 15 -21 10 -4 13 -14 9 -30 -4 -16 0 -31 11 -44 9 -10
14 -23 11 -29 -4 -5 2 -16 11 -23 24 -18 49 -67 45 -90 -2 -10 2 -18 9 -18 6
0 9 -8 6 -19 -3 -11 2 -29 9 -40 8 -11 14 -24 13 -28 -3 -13 19 -61 30 -64 6
-2 14 -19 17 -38 6 -28 4 -33 -7 -26 -8 4 -2 -4 14 -17 31 -29 34 -43 11 -52
-15 -6 -14 -9 5 -25 11 -10 21 -22 21 -27 0 -5 8 -14 19 -21 14 -8 18 -22 16
-51 -2 -31 1 -39 11 -35 9 3 14 -2 14 -16 0 -12 5 -21 10 -21 6 0 10 -10 10
-22 0 -13 9 -38 20 -56 22 -36 50 -108 50 -130 0 -7 7 -20 15 -28 8 -9 18 -27
21 -42 6 -29 11 -41 42 -112 17 -38 34 -79 81 -195 5 -11 16 -37 25 -58 9 -21
16 -46 16 -56 0 -10 9 -28 20 -41 20 -23 24 -34 21 -57 -1 -7 3 -13 9 -13 5 0
10 -8 10 -18 0 -10 3 -22 8 -26 4 -4 7 -11 8 -14 1 -13 39 -87 52 -100 6 -7
12 -21 12 -30 0 -10 6 -26 13 -37 8 -11 19 -41 27 -67 7 -26 19 -53 26 -59 7
-6 16 -26 20 -45 3 -19 10 -34 15 -34 5 0 9 -8 9 -19 0 -10 9 -30 20 -44 11
-14 20 -31 20 -38 0 -7 11 -31 24 -53 13 -23 34 -71 47 -108 12 -37 25 -65 28
-63 5 6 101 -188 101 -205 0 -5 4 -10 8 -10 5 0 25 -35 46 -79 20 -43 46 -87
56 -96 11 -10 20 -24 20 -32 0 -7 18 -43 40 -79 22 -36 40 -69 40 -74 0 -4 13
-27 30 -51 16 -24 30 -49 30 -56 0 -7 11 -24 25 -39 14 -15 28 -39 32 -53 3
-14 19 -39 35 -56 15 -16 34 -45 40 -62 7 -18 16 -33 20 -33 4 0 8 -7 8 -15 0
-8 5 -15 10 -15 6 0 10 -13 10 -30 0 -17 5 -30 13 -30 6 0 21 -18 31 -40 10
-22 27 -47 38 -56 10 -10 18 -22 18 -29 0 -7 9 -20 20 -30 11 -10 20 -26 20
-36 0 -9 4 -19 8 -21 10 -3 91 -117 107 -149 5 -10 15 -19 21 -19 5 0 18 -15
26 -34 19 -39 57 -93 142 -203 33 -42 67 -90 76 -107 9 -18 22 -30 30 -28 8 2
12 0 8 -4 -7 -7 13 -35 70 -100 15 -16 41 -48 57 -69 38 -50 207 -256 257
-314 48 -55 49 -77 6 -86 -18 -4 -36 -12 -39 -17 -3 -5 -21 10 -40 34 -18 24
-36 45 -39 48 -14 12 -150 179 -150 184 0 7 -21 32 -70 85 -19 21 -43 51 -52
67 -28 47 -41 64 -85 111 -24 24 -43 48 -43 52 0 4 -16 25 -36 47 -20 21 -57
68 -83 104 -25 36 -54 74 -64 85 -10 11 -30 40 -45 65 -14 25 -33 54 -43 65
-9 11 -27 39 -39 63 -12 23 -26 45 -31 48 -5 3 -19 24 -32 46 -31 57 -45 81
-57 98 -36 53 -88 141 -103 173 -10 20 -22 37 -27 37 -5 0 -11 9 -15 20 -8 24
-75 124 -87 128 -4 2 -8 9 -8 16 0 17 -30 77 -49 98 -9 9 -25 34 -36 55 -25
48 -77 127 -86 131 -4 2 -5 10 -2 18 3 8 0 14 -6 14 -6 0 -8 6 -5 14 3 7 -1
16 -9 19 -9 3 -18 19 -22 35 -3 17 -13 33 -20 36 -8 3 -25 28 -37 56 -12 27
-25 50 -29 50 -3 0 -12 20 -19 45 -7 25 -16 45 -21 45 -11 0 -40 70 -34 80 3
4 -2 11 -10 14 -8 3 -15 9 -14 13 4 23 -3 43 -13 40 -8 -1 -12 8 -10 25 3 22
-2 30 -23 38 -23 9 -24 12 -14 31 8 16 8 20 -1 14 -7 -4 -13 1 -17 14 -3 11
-10 18 -16 14 -6 -3 -7 -1 -3 5 6 11 -19 70 -36 82 -4 3 -6 14 -5 25 1 11 -3
19 -10 18 -7 -2 -13 6 -13 16 0 11 -7 27 -16 35 -8 9 -13 20 -9 25 3 5 -3 16
-13 23 -11 7 -22 30 -26 51 -4 21 -16 47 -27 58 -11 11 -18 27 -15 34 2 7 -2
16 -10 19 -8 3 -14 11 -14 18 0 7 -9 32 -20 56 -10 23 -19 45 -19 49 1 3 -3 9
-8 12 -11 8 -33 72 -33 96 0 10 -9 26 -21 36 -11 10 -18 23 -14 28 3 6 3 11
-2 11 -4 0 -14 15 -22 33 -7 17 -19 44 -26 60 -12 23 -11 27 1 27 12 0 12 2 2
14 -7 8 -16 12 -21 9 -4 -2 -10 9 -13 26 -4 17 -10 28 -15 25 -15 -9 -10 6 7
24 14 13 14 17 3 21 -26 8 -49 44 -49 77 0 23 -6 37 -20 44 -11 6 -17 16 -14
25 4 9 1 22 -6 30 -7 8 -10 22 -6 30 3 8 1 15 -5 15 -6 0 -7 5 -4 10 3 6 1 10
-4 10 -6 0 -11 13 -11 28 0 16 -9 37 -21 48 -11 10 -18 26 -16 36 3 10 1 21
-4 24 -5 3 -9 14 -9 25 0 10 -4 19 -10 19 -5 0 -10 7 -10 15 0 8 -4 15 -9 15
-16 0 -30 55 -19 75 6 10 7 15 1 12 -5 -3 -16 9 -23 28 -7 19 -18 31 -23 28
-7 -4 -8 1 -3 12 4 11 2 22 -5 26 -10 6 -9 13 2 30 14 20 13 24 -5 44 -24 26
-60 143 -51 166 4 11 -1 15 -22 15 -24 -1 -28 3 -29 29 -1 17 -11 46 -23 66
-12 20 -19 44 -15 53 5 13 2 15 -12 9 -17 -6 -17 -5 -5 11 10 12 11 20 3 28
-6 6 -8 17 -5 24 3 8 0 14 -6 14 -6 0 -11 8 -11 18 0 11 -7 32 -15 49 -8 16
-16 38 -18 49 -1 11 -13 33 -25 48 -20 27 -22 53 -1 41 5 -4 9 -1 9 5 0 7 -7
10 -15 7 -18 -7 -30 9 -13 17 8 4 9 8 3 11 -35 18 -40 24 -28 36 10 10 6 18
-15 37 -15 13 -21 21 -14 18 19 -11 14 15 -5 30 -12 9 -14 13 -5 14 13 0 12
12 -10 70 -8 20 -11 22 -20 10 -8 -12 -9 -12 -4 3 7 23 -4 78 -15 71 -5 -3 -9
8 -9 24 0 16 -7 35 -15 42 -8 7 -13 24 -11 41 2 16 0 29 -4 29 -5 0 -11 18
-15 40 -4 22 -10 40 -15 40 -4 0 -11 21 -15 48 -4 26 -15 64 -25 85 -11 21
-16 45 -13 53 3 8 0 14 -7 14 -8 0 -11 10 -7 29 5 24 2 30 -16 36 -15 4 -18 8
-8 12 10 4 11 7 1 13 -7 5 -15 22 -16 38 -2 17 -11 51 -20 77 -8 26 -16 60
-16 76 -1 16 -5 29 -10 29 -4 0 -8 11 -8 24 0 14 -4 27 -9 30 -5 4 -12 24 -16
46 -4 22 -11 40 -16 40 -6 0 -7 4 -4 10 3 5 -1 22 -8 37 -19 37 -30 144 -17
163 5 8 10 11 10 7 0 -4 9 -3 20 3 11 6 18 15 15 21 -4 5 -2 9 3 9 6 0 15 -14
21 -30z m-1304 -320 c3 -5 12 -7 20 -3 9 3 15 -1 15 -11 0 -12 7 -14 31 -9 30
6 32 4 27 -19 -6 -33 30 -60 46 -35 8 12 13 9 29 -21 11 -21 15 -38 9 -40 -16
-5 -2 -40 19 -45 24 -6 25 -27 2 -27 -17 -1 -17 -1 -1 -11 17 -9 17 -11 -1
-31 -11 -11 -24 -17 -29 -14 -6 3 -12 -1 -16 -9 -3 -8 -10 -15 -16 -15 -6 0
-9 4 -6 9 6 10 -54 -2 -74 -14 -8 -5 -11 -4 -6 3 3 6 2 13 -4 17 -5 3 -10 1
-10 -4 0 -6 -11 -11 -25 -11 -24 0 -29 9 -28 48 1 20 -58 53 -73 41 -8 -7 -15
-1 -22 21 -6 17 -18 33 -27 36 -8 3 -15 12 -15 18 0 7 -11 19 -25 26 -14 7
-25 17 -25 22 0 11 18 10 25 -2 9 -15 25 -12 25 4 0 7 -10 16 -22 19 -17 5
-19 9 -9 20 16 20 61 28 61 12 0 -14 46 -29 60 -20 6 4 10 1 10 -4 0 -6 7 -11
15 -11 10 0 15 11 15 35 0 33 12 46 25 25z m-205 -26 c0 -8 -4 -12 -10 -9 -5
3 -10 10 -10 16 0 5 5 9 10 9 6 0 10 -7 10 -16z m160 6 c0 -5 -2 -10 -4 -10
-3 0 -8 5 -11 10 -3 6 -1 10 4 10 6 0 11 -4 11 -10z m-222 -45 c-3 -3 -9 2
-12 12 -6 14 -5 15 5 6 7 -7 10 -15 7 -18z m-231 -168 c4 -7 21 -23 37 -35 16
-12 23 -22 17 -22 -8 0 -10 -8 -6 -20 7 -23 -19 -78 -29 -61 -13 21 -28 12
-22 -15 6 -23 5 -24 -14 -14 -13 7 -20 7 -20 0 0 -21 -16 -9 -41 33 -41 65
-44 92 -14 111 14 9 30 14 35 11 6 -3 7 1 4 9 -5 12 0 16 19 16 14 0 30 -6 34
-13z m-710 -847 c3 -11 11 -20 19 -20 7 0 18 -9 24 -21 20 -36 47 -58 58 -47
7 7 9 0 6 -23 -11 -78 -11 -79 -55 -79 -71 0 -128 20 -143 49 -16 32 -2 87 31
124 12 14 19 28 16 31 -4 3 4 6 16 6 14 0 25 -7 28 -20z m-171 -77 c10 -21 24
-42 29 -46 6 -4 -3 -5 -20 -1 -23 4 -26 3 -15 -5 24 -17 -12 -14 -59 5 -48 19
-61 48 -34 73 42 39 69 32 99 -26z m467 3 c10 3 24 1 32 -6 12 -10 15 -9 15 4
0 24 21 2 41 -41 7 -18 17 -33 21 -33 15 0 8 -29 -9 -39 -10 -6 -14 -11 -10
-11 19 0 -20 -26 -43 -28 -43 -4 -140 20 -149 37 -23 44 16 129 52 115 11 -4
17 -1 17 7 0 11 2 11 8 1 5 -7 16 -10 25 -6z m-657 -61 c-3 -8 -1 -15 4 -15 5
0 34 -11 64 -25 30 -14 73 -27 96 -30 23 -3 56 -13 72 -23 17 -9 42 -23 57
-31 47 -25 72 -49 60 -56 -19 -12 -94 -7 -140 9 -24 9 -52 16 -62 16 -38 0
-161 85 -155 107 5 20 -15 52 -35 56 -15 3 -11 5 12 6 26 1 32 -2 27 -14z
m834 -42 c-11 -17 -11 -17 -6 0 3 10 7 26 7 35 1 15 2 15 6 0 2 -10 -1 -25 -7
-35z m-10 24 c0 -7 -7 -23 -16 -36 -22 -31 -38 -7 -17 26 17 25 33 30 33 10z
m-265 -157 c4 -6 -5 -10 -19 -10 -14 0 -26 5 -26 10 0 6 9 10 19 10 11 0 23
-4 26 -10z m-805 -400 c6 0 10 -7 7 -14 -4 -10 -1 -13 8 -10 8 3 16 -3 20 -16
5 -15 12 -19 26 -15 13 5 17 2 14 -7 -4 -9 2 -14 15 -14 22 0 27 11 8 20 -10
5 -10 7 0 12 6 3 12 14 12 25 0 15 7 19 35 19 21 0 35 -5 35 -12 0 -9 2 -10 8
-2 7 12 93 14 102 2 3 -3 33 -9 68 -12 34 -3 70 -9 80 -14 9 -5 34 -12 55 -16
39 -7 49 -28 21 -44 -10 -5 -14 -14 -9 -21 5 -9 13 -7 27 8 10 12 23 19 29 16
5 -4 9 1 9 9 0 11 9 16 26 16 18 0 25 -4 21 -14 -4 -10 0 -12 15 -8 15 4 17 7
6 14 -8 6 -1 7 22 3 33 -7 66 -12 83 -14 14 -2 7 -31 -8 -31 -26 0 -16 -17 18
-30 72 -28 87 -35 87 -42 0 -17 -40 -7 -40 10 -1 16 -1 16 -14 0 -7 -10 -18
-18 -25 -18 -6 0 -11 -5 -11 -11 0 -8 -4 -8 -14 0 -10 8 -16 9 -21 2 -4 -7
-14 -6 -28 4 -13 8 -32 16 -42 18 -27 4 -51 19 -59 37 -3 8 -4 2 -2 -13 3 -21
0 -27 -11 -23 -8 3 -18 6 -22 6 -5 0 -6 11 -3 25 2 15 0 25 -7 25 -6 0 -11 -6
-11 -14 0 -21 -57 -39 -64 -20 -3 8 1 14 10 14 10 0 14 8 12 22 -4 30 -30 34
-46 7 -12 -18 -12 -23 0 -30 12 -8 4 -13 -14 -10 -5 0 -8 -3 -8 -9 0 -5 -7
-10 -15 -10 -8 0 -15 -5 -15 -12 0 -6 -7 -3 -15 8 -8 10 -15 15 -15 11 0 -4
-8 -4 -17 1 -10 5 -27 6 -38 2 -24 -8 -55 8 -48 26 3 8 -5 15 -19 18 -12 3
-36 8 -53 11 -16 3 -50 7 -75 8 -25 1 -50 5 -57 10 -6 4 -14 1 -16 -5 -4 -8
-8 -5 -12 9 -4 13 -12 20 -21 16 -8 -3 -14 0 -14 7 0 7 -7 10 -15 6 -14 -5
-21 16 -16 47 0 4 -2 7 -6 6 -21 -3 -52 15 -56 32 -3 10 -1 19 4 19 5 0 9 10
9 22 0 18 5 16 38 -20 22 -23 45 -42 52 -42z m-1873 -775 c7 12 13 14 17 6 11
-17 -2 -31 -30 -31 -14 0 -24 -6 -24 -14 0 -19 -32 -30 -42 -14 -5 8 -1 18 12
27 11 7 20 23 20 35 0 20 1 20 19 -3 17 -22 19 -23 28 -6z m-108 -70 c13 4 17
0 17 -17 -1 -18 5 -24 27 -26 29 -4 36 -16 12 -26 -22 -8 -18 -31 8 -44 12 -6
16 -11 9 -11 -8 -1 -6 -9 8 -23 11 -12 20 -28 20 -36 0 -9 6 -12 15 -8 9 3 24
-3 35 -14 16 -16 17 -20 4 -31 -13 -10 -17 -10 -24 2 -14 22 -32 -3 -24 -35 4
-17 12 -25 23 -24 10 2 15 -3 13 -14 -2 -13 2 -16 15 -11 16 6 16 5 4 -10 -12
-15 -11 -17 2 -17 13 0 15 -8 10 -37 -5 -31 -4 -35 10 -30 9 3 19 2 22 -4 4
-5 -4 -13 -17 -18 -20 -8 -17 -10 20 -10 26 -1 41 -5 37 -11 -10 -16 5 -50 21
-50 9 0 14 -11 14 -31 0 -24 4 -30 15 -25 9 3 15 0 15 -8 0 -8 11 -21 25 -30
14 -9 22 -22 19 -30 -5 -14 10 -29 34 -32 23 -4 42 -26 42 -48 0 -12 9 -28 20
-36 11 -8 20 -21 20 -28 0 -9 6 -12 16 -8 14 5 16 1 11 -31 -5 -26 -3 -33 3
-23 8 12 10 12 10 1 0 -11 3 -11 15 -1 21 17 36 2 29 -28 -7 -25 -24 -30 -24
-7 0 8 -6 15 -13 15 -8 0 -13 -10 -13 -22 1 -25 22 -35 75 -37 27 -1 32 -4 23
-13 -18 -18 -14 -56 7 -67 10 -6 21 -7 25 -4 3 3 6 1 6 -6 0 -8 8 -11 20 -8
11 3 22 1 25 -3 3 -4 14 -6 25 -3 11 3 28 2 37 -2 10 -5 21 -7 26 -7 4 1 7 -3
7 -8 0 -6 6 -10 14 -10 7 0 19 -7 26 -15 15 -18 91 -20 107 -4 8 8 14 5 22
-10 7 -12 18 -21 26 -21 7 0 32 -18 55 -40 23 -22 51 -40 63 -41 12 0 16 -3
10 -6 -7 -2 -13 -14 -13 -25 0 -16 3 -18 14 -9 9 8 16 9 20 2 4 -6 -2 -16 -14
-23 -11 -7 -20 -21 -20 -32 0 -14 6 -17 25 -14 20 4 25 1 25 -14 0 -29 19 -58
33 -52 8 3 19 -7 27 -23 19 -38 24 -51 11 -33 -8 12 -12 10 -19 -10 -8 -19
-11 -21 -16 -10 -3 8 -18 16 -32 16 -45 3 -396 187 -449 237 -11 10 -42 31
-70 47 -57 33 -197 165 -238 226 -15 22 -37 51 -50 64 -12 13 -29 36 -37 50
-8 15 -30 47 -49 72 -18 26 -32 49 -30 52 2 3 -3 11 -12 18 -9 7 -27 33 -40
58 -13 25 -34 60 -46 79 -31 46 -46 103 -30 113 6 4 9 8 5 9 -5 1 -12 3 -18 4
-5 1 -15 3 -21 4 -5 0 -7 5 -4 11 3 5 -1 19 -9 31 -8 12 -12 28 -9 35 3 8 0
14 -6 14 -6 0 -11 9 -11 21 0 13 4 18 12 13 8 -5 9 -2 5 9 -3 10 -2 17 3 17 5
0 7 6 4 14 -3 8 -13 12 -23 9 -16 -4 -19 4 -26 61 -4 43 -12 69 -22 75 -11 6
-12 10 -4 15 17 11 13 43 -6 50 -15 6 -15 8 -3 16 11 7 16 5 18 -6 2 -9 10
-13 21 -9z m101 -25 c12 -23 11 -24 -24 -10 -31 11 -34 30 -6 30 10 0 24 -9
30 -20z m45 0 c3 -5 1 -10 -4 -10 -6 0 -11 5 -11 10 0 6 2 10 4 10 3 0 8 -4
11 -10z m19 -38 c4 -7 -27 -42 -38 -42 -2 0 -3 11 -3 25 0 17 5 25 18 25 10 0
20 -4 23 -8z m36 -52 c0 -5 -2 -10 -4 -10 -3 0 -8 5 -11 10 -3 6 -1 10 4 10 6
0 11 -4 11 -10z m40 -173 c0 -7 -9 -18 -20 -25 -16 -10 -20 -10 -20 1 0 14 20
37 32 37 4 0 8 -6 8 -13z m80 -248 c0 -5 -8 -9 -17 -8 -11 0 -13 3 -5 6 6 2 9
10 6 15 -4 7 -2 8 4 4 7 -4 12 -11 12 -17z m9920 -629 c0 -5 -5 -10 -11 -10
-5 0 -7 5 -4 10 3 6 8 10 11 10 2 0 4 -4 4 -10z m140 -60 c0 -5 -4 -10 -10
-10 -5 0 -10 5 -10 10 0 6 5 10 10 10 6 0 10 -4 10 -10z m1085 -459 c3 -11 15
-23 26 -26 10 -4 19 -11 19 -16 0 -5 8 -9 19 -9 36 0 44 -24 19 -66 -12 -22
-26 -40 -30 -42 -4 -2 -4 -10 -1 -18 7 -18 -23 -8 -46 15 -21 21 -52 119 -40
127 5 3 9 16 9 30 0 29 16 32 25 5z m1441 -550 c-4 -5 -2 -11 3 -13 21 -8 20
-44 -2 -69 -115 -135 -506 -534 -599 -613 -43 -37 -57 -55 -56 -73 1 -12 8
-24 15 -24 7 -1 18 -2 25 -3 21 -2 20 -26 -1 -26 -12 0 -21 -5 -21 -11 0 -7 7
-8 18 -4 9 3 19 7 22 8 9 3 10 -7 3 -31 -4 -18 -8 -20 -19 -11 -11 9 -14 8
-14 -5 0 -9 5 -16 11 -16 6 0 8 -9 4 -20 -4 -14 -2 -20 9 -20 8 0 22 -3 30 -6
12 -5 15 -2 10 10 -4 10 -1 16 9 16 8 0 17 -7 21 -15 3 -8 12 -15 21 -15 20 0
19 -10 -2 -26 -27 -19 -7 -29 20 -11 16 10 24 24 22 39 -1 13 0 15 2 6 2 -10
11 -18 19 -18 8 0 12 -5 9 -11 -4 -6 2 -13 14 -16 12 -3 21 -12 21 -20 0 -9 6
-13 14 -10 16 6 32 -26 22 -41 -3 -5 6 -19 19 -32 17 -16 22 -27 15 -35 -7 -8
0 -21 21 -43 17 -18 27 -32 21 -32 -6 0 -13 4 -16 9 -8 12 -68 9 -73 -4 -2 -6
6 -21 18 -33 11 -13 18 -30 15 -38 -3 -7 -1 -14 5 -14 18 0 28 -44 12 -54 -13
-7 -13 -10 -2 -17 11 -7 10 -9 -5 -9 -12 0 -16 -5 -13 -15 4 -8 2 -17 -4 -20
-5 -4 -7 -11 -3 -16 3 -5 -1 -20 -9 -33 -12 -17 -13 -26 -4 -35 8 -8 8 -11 -1
-11 -7 0 -12 5 -12 10 0 23 -19 8 -22 -17 -2 -20 -9 -29 -25 -31 -13 -2 -23
-7 -23 -12 0 -5 -24 -8 -52 -7 -38 1 -52 -2 -51 -10 2 -8 -7 -13 -22 -13 -14
0 -25 -4 -25 -10 0 -5 -9 -10 -20 -10 -13 0 -18 5 -14 15 4 9 -6 22 -28 35
-18 11 -27 20 -20 20 6 0 12 9 12 20 0 11 -4 20 -9 20 -12 0 -35 -29 -28 -36
3 -4 0 -13 -8 -21 -13 -13 -17 -13 -30 0 -8 8 -11 17 -8 21 4 3 1 6 -6 6 -8 0
-10 7 -6 19 7 23 -30 62 -51 54 -8 -3 -11 -9 -8 -14 3 -5 1 -9 -5 -9 -12 0
-23 17 -26 39 -6 38 -18 62 -31 57 -8 -3 -20 6 -29 22 l-14 27 4 -39 c5 -42
-1 -60 -16 -50 -6 4 -6 11 2 20 6 8 8 14 3 14 -5 0 -10 24 -11 52 0 29 -6 54
-13 56 -12 4 -33 47 -35 75 -2 12 3 16 11 13 15 -6 17 -1 8 32 -4 12 -11 22
-16 22 -6 0 -8 -7 -4 -15 3 -8 2 -15 -3 -15 -5 0 -11 9 -14 20 -3 14 -10 18
-21 14 -9 -4 -16 -3 -15 2 4 22 -2 34 -18 34 -15 0 -16 2 -3 10 13 8 13 10 -1
10 -9 0 -22 -7 -29 -15 -7 -8 -16 -15 -21 -15 -5 0 -27 -11 -49 -25 -22 -14
-60 -30 -85 -37 -25 -7 -45 -15 -45 -19 0 -9 -34 -16 -114 -25 -33 -3 -66 -13
-74 -20 -7 -8 -19 -14 -27 -14 -7 0 -26 -13 -42 -30 -15 -16 -45 -36 -65 -44
-20 -9 -43 -24 -50 -34 -18 -25 -69 -59 -101 -67 -14 -4 -31 -13 -38 -21 -6
-8 -18 -14 -27 -14 -8 0 -21 -8 -28 -17 -10 -14 -13 -15 -14 -4 0 10 -7 7 -22
-9 -26 -28 -30 -55 -8 -55 8 0 14 5 13 12 -1 6 5 10 15 9 14 -2 18 -17 23 -77
3 -42 2 -77 -3 -80 -5 -3 -2 -9 6 -12 13 -5 16 -18 13 -62 -2 -30 -1 -55 2
-55 12 0 11 -93 0 -107 -14 -16 -29 -8 -29 18 0 10 -5 19 -10 19 -6 0 -8 13
-5 29 3 18 0 35 -9 44 -16 16 -39 90 -25 82 17 -11 9 18 -8 32 -10 8 -13 12
-7 9 21 -10 10 48 -13 71 -17 16 -23 18 -23 8 0 -8 6 -15 13 -16 6 -1 1 -5
-13 -9 -17 -5 -19 -8 -7 -9 9 -1 17 -3 17 -5 0 -2 3 -12 7 -22 4 -12 3 -15 -5
-10 -7 4 -12 1 -12 -9 0 -9 4 -14 8 -11 12 7 6 -54 -7 -67 -8 -8 -13 -2 -17
21 -6 31 -8 32 -25 16 -10 -9 -23 -13 -28 -9 -6 3 -11 1 -11 -5 0 -8 9 -10 27
-5 21 5 24 4 15 -7 -7 -9 -8 -19 -2 -28 12 -19 13 -57 1 -65 -12 -7 -53 31
-71 65 -8 15 -15 20 -18 12 -5 -16 -42 30 -42 53 0 9 -5 25 -10 35 -12 22 4
75 20 65 16 -10 54 15 41 28 -7 7 -15 6 -26 -3 -8 -7 -23 -13 -33 -14 -9 -1
-34 -10 -56 -19 -21 -9 -44 -17 -52 -17 -7 0 -16 -4 -19 -10 -3 -5 -17 -10
-30 -10 -13 0 -26 -4 -29 -9 -3 -5 -32 -18 -63 -30 -32 -13 -71 -29 -88 -36
-68 -31 -222 -94 -255 -103 -43 -13 -148 -49 -175 -62 -11 -4 -33 -11 -50 -14
-16 -4 -39 -8 -50 -10 -11 -3 -58 -12 -104 -20 -46 -9 -89 -20 -95 -25 -6 -4
-27 -8 -46 -8 -19 -1 -55 -6 -80 -12 -25 -6 -92 -14 -150 -17 -136 -8 -206 6
-345 72 -33 16 -62 31 -65 35 -3 3 -25 16 -49 30 -24 13 -56 35 -70 49 -15 14
-49 45 -76 70 -28 25 -86 86 -130 135 -44 50 -82 92 -85 95 -3 3 -23 25 -44
50 -131 151 -193 218 -299 323 -100 99 -118 122 -114 143 2 13 0 24 -4 24 -5
0 -9 9 -9 20 0 28 28 25 39 -3 5 -13 24 -36 43 -51 55 -47 159 -149 238 -237
41 -46 98 -108 125 -138 28 -31 55 -60 60 -67 214 -242 306 -326 436 -397 110
-60 252 -80 399 -56 30 4 114 18 185 29 293 47 504 116 834 271 57 27 108 49
113 49 5 0 7 4 4 8 -3 5 2 9 10 9 27 0 134 56 134 71 0 8 6 12 15 8 8 -3 25
-1 37 4 23 9 23 9 -2 10 -19 0 -22 2 -10 10 12 8 12 10 -3 16 -29 11 -18 94
14 94 24 0 36 -20 12 -21 -10 0 -13 -3 -6 -5 7 -3 20 -1 30 5 12 7 13 10 4 11
-11 0 -11 3 0 16 11 13 9 14 -14 9 -17 -5 -27 -3 -27 4 0 6 4 11 9 11 6 0 8 9
6 19 -4 23 12 31 40 21 13 -5 26 0 41 17 12 12 26 23 33 23 18 0 13 -24 -9
-38 -24 -15 -26 -32 -4 -32 8 0 23 -7 31 -16 10 -10 25 -13 39 -10 17 5 24 2
24 -8 0 -19 -17 -30 -22 -14 -7 20 -26 -1 -21 -22 6 -23 7 -23 31 -10 9 6 61
26 116 44 132 46 162 72 46 41 -64 -17 -75 -13 -31 12 17 10 31 21 31 26 0 4
9 7 20 7 11 0 20 5 20 10 0 6 5 10 12 10 11 0 196 66 263 94 17 7 46 19 65 27
19 7 78 35 130 62 52 28 109 57 126 66 28 14 31 20 27 48 -5 28 -2 34 22 43
22 8 26 15 23 35 -3 14 -1 25 3 25 5 0 9 7 9 15 0 8 -4 15 -10 15 -5 0 -9 -3
-7 -8 3 -10 -40 -52 -47 -44 -3 3 1 16 10 30 13 20 14 29 4 50 -10 22 -9 24 4
13 8 -7 24 -10 36 -6 11 3 20 3 20 -2 0 -4 11 -13 25 -20 22 -10 25 -9 25 8 0
10 5 19 10 19 6 0 10 7 10 16 0 9 6 14 12 12 12 -4 38 14 38 25 0 3 -12 8 -27
13 l-28 7 30 7 c17 4 22 8 13 9 -10 0 -18 6 -18 12 0 6 7 8 16 5 9 -3 18 -6
20 -6 2 0 4 -10 4 -23 0 -14 12 -32 30 -45 16 -12 28 -28 26 -35 -1 -6 -1 -9
1 -4 3 4 11 7 20 7 39 0 212 140 389 315 56 55 160 154 230 220 71 66 145 136
164 157 35 37 46 46 36 29z m174 -181 c0 -5 -9 -10 -21 -10 -11 0 -17 5 -14
10 3 6 13 10 21 10 8 0 14 -4 14 -10z m-147 -38 c-3 -12 -9 -19 -14 -16 -5 3
-4 14 2 25 13 26 20 21 12 -9z m187 18 c16 -10 15 -12 -15 -28 -19 -11 -19
-11 4 -12 13 0 30 8 38 18 13 16 14 15 9 -7 -3 -17 0 -25 14 -28 10 -3 17 -11
16 -17 -3 -22 -36 -48 -51 -42 -8 3 -15 1 -15 -4 0 -20 -18 -9 -24 15 -4 14
-13 25 -22 25 -19 0 -10 39 13 57 8 6 12 16 8 22 -8 13 5 14 25 1z m-90 -25
c0 -8 -4 -15 -10 -15 -5 0 -10 7 -10 15 0 8 5 15 10 15 6 0 10 -7 10 -15z
m240 5 c0 -5 -4 -10 -10 -10 -5 0 -10 5 -10 10 0 6 5 10 10 10 6 0 10 -4 10
-10z m-295 -29 c-3 -6 -11 -11 -17 -11 -6 0 -6 6 2 15 14 17 26 13 15 -4z
m342 -7 c-9 -9 -28 6 -21 18 4 6 10 6 17 -1 6 -6 8 -13 4 -17z m-27 -24 c0 -5
-2 -10 -4 -10 -3 0 -8 5 -11 10 -3 6 -1 10 4 10 6 0 11 -4 11 -10z m70 -12 c0
-13 -23 -5 -28 10 -2 7 2 10 12 6 9 -3 16 -11 16 -16z m-415 2 c3 -5 -1 -10
-9 -10 -9 0 -16 5 -16 10 0 6 4 10 9 10 6 0 13 -4 16 -10z m115 -36 c0 -8 -5
-12 -10 -9 -6 4 -8 11 -5 16 9 14 15 11 15 -7z m27 -111 c4 -10 11 -21 17 -25
11 -8 16 -48 5 -48 -4 0 -14 -3 -23 -6 -19 -7 -22 26 -4 44 9 9 7 13 -5 18 -9
3 -17 12 -17 20 0 20 19 17 27 -3z m281 -13 c0 -16 -4 -30 -9 -30 -10 0 -12
43 -2 53 10 10 10 10 11 -23z m-98 0 c0 -5 -7 -10 -16 -10 -8 0 -12 5 -9 10 3
6 10 10 16 10 5 0 9 -4 9 -10z m240 -16 c0 -8 -4 -12 -10 -9 -5 3 -10 13 -10
21 0 8 5 12 10 9 6 -3 10 -13 10 -21z m-3832 -9 c-3 -3 -9 2 -12 12 -6 14 -5
15 5 6 7 -7 10 -15 7 -18z m3733 -60 c13 13 15 12 17 -11 1 -14 -2 -23 -7 -19
-5 3 -21 1 -35 -5 -17 -6 -26 -6 -26 0 0 6 5 10 11 10 7 0 9 9 6 23 -5 20 -5
20 7 5 11 -15 14 -15 27 -3z m53 -18 c8 -8 10 -20 5 -32 -6 -17 -8 -17 -8 -2
-1 9 -5 17 -11 17 -5 0 -10 7 -10 15 0 18 7 19 24 2z m-3708 -12 c8 -7 5 -14
-10 -26 -33 -25 -56 -31 -56 -14 0 8 9 15 19 15 11 0 23 5 26 10 3 6 -3 10
-14 10 -11 0 -22 3 -24 8 -7 11 46 9 59 -3z m37 8 c-7 -2 -19 -2 -25 0 -7 3
-2 5 12 5 14 0 19 -2 13 -5z m2090 -98 c-7 -19 -17 -19 -32 -1 -10 11 -8 15 6
18 25 6 33 0 26 -17z m-1819 -1 c3 -8 2 -12 -4 -9 -6 3 -10 10 -10 16 0 14 7
11 14 -7z m3126 6 c0 -5 -8 -10 -17 -10 -15 0 -16 2 -3 10 19 12 20 12 20 0z
m-1260 -4 c0 -2 -7 -6 -15 -10 -8 -3 -15 -1 -15 4 0 6 7 10 15 10 8 0 15 -2
15 -4z m163 -36 c3 -11 2 -20 -3 -20 -8 0 -20 24 -20 41 0 17 17 1 23 -21z
m-1996 -36 c13 -21 18 -36 12 -40 -6 -3 -8 -16 -5 -29 4 -15 1 -25 -9 -29 -11
-4 -14 -14 -10 -36 4 -22 1 -30 -9 -30 -8 0 -17 -6 -20 -12 -3 -7 -3 1 0 19 5
28 3 31 -15 26 -12 -3 -21 -1 -22 3 -6 48 -5 74 3 74 5 0 8 10 6 23 -2 13 2
21 10 20 17 -4 15 24 -3 31 -8 3 -12 12 -9 20 8 22 44 2 71 -40z m1749 19
c-10 -10 -19 5 -10 18 6 11 8 11 12 0 2 -7 1 -15 -2 -18z m64 23 c0 -3 -4 -8
-10 -11 -5 -3 -10 -1 -10 4 0 6 5 11 10 11 6 0 10 -2 10 -4z m-1060 -51 c10
-12 10 -15 -4 -15 -9 0 -16 7 -16 15 0 8 2 15 4 15 2 0 9 -7 16 -15z m90 -130
c0 -8 -4 -15 -10 -15 -5 0 -10 7 -10 15 0 8 5 15 10 15 6 0 10 -7 10 -15z
m-824 -22 c-10 -10 -19 5 -10 18 6 11 8 11 12 0 2 -7 1 -15 -2 -18z m604 -83
c0 -5 -5 -10 -11 -10 -5 0 -7 5 -4 10 3 6 8 10 11 10 2 0 4 -4 4 -10z m164
-50 c7 0 12 -15 13 -40 0 -22 -3 -40 -7 -40 -5 0 -17 -3 -27 -6 -11 -3 -14 -2
-7 3 14 11 11 58 -7 79 -12 16 -12 17 4 11 10 -4 24 -7 31 -7z m-70 -83 c7 -6
6 -7 -4 -4 -8 2 -16 12 -17 23 -2 13 -1 15 4 4 3 -8 11 -19 17 -23z m-11684
-22 c282 -46 448 -134 519 -274 47 -92 64 -236 40 -341 -19 -83 -80 -191 -149
-261 -113 -116 -233 -158 -452 -160 -154 -1 -288 16 -306 39 -9 11 -11 30 -7
52 3 19 13 91 21 160 36 284 35 280 68 281 21 0 21 0 -1 9 -24 10 -30 39 -12
57 6 6 12 40 14 75 1 34 12 103 24 151 11 49 21 101 21 117 0 27 21 88 36 103
12 11 81 8 184 -8z m11670 -5 c0 -5 -4 -10 -10 -10 -5 0 -10 5 -10 10 0 6 5
10 10 10 6 0 10 -4 10 -10z m37 -12 c-3 -8 -6 -5 -6 6 -1 11 2 17 5 13 3 -3 4
-12 1 -19z m83 -6 c0 -4 -4 -13 -9 -20 -6 -10 -11 -6 -19 17 -10 29 -10 31 8
21 11 -6 20 -14 20 -18z m-140 -26 c0 -3 -4 -8 -10 -11 -5 -3 -10 -1 -10 4 0
6 5 11 10 11 6 0 10 -2 10 -4z m-5 -66 c-2 -29 -15 -56 -15 -32 0 6 -7 12 -15
14 -14 3 -14 6 2 25 24 31 31 29 28 -7z m-10571 -40 c139 -18 224 -34 233 -43
11 -11 12 -26 4 -77 -18 -108 -36 -116 -226 -90 -71 9 -133 14 -138 11 -4 -4
-14 -40 -23 -81 -12 -60 -13 -76 -2 -86 7 -7 76 -23 153 -34 77 -12 146 -27
153 -34 11 -11 11 -25 2 -77 -6 -35 -16 -71 -21 -81 -14 -26 -71 -32 -168 -19
-47 7 -104 13 -126 14 l-39 2 -12 -50 c-7 -27 -13 -67 -13 -88 -1 -47 2 -48
169 -71 183 -26 174 -20 159 -107 -20 -110 -38 -127 -134 -115 -119 15 -424
64 -434 70 -14 9 -14 52 -2 125 6 31 15 88 21 126 22 149 110 652 120 687 13
44 34 59 75 53 17 -3 129 -18 249 -35z m515 -85 c47 -8 89 -19 94 -24 24 -24
227 -581 227 -622 0 -30 22 -91 29 -83 9 10 27 95 61 289 32 179 58 287 74
303 11 12 21 12 52 2 93 -29 97 -40 64 -192 -49 -233 -97 -516 -126 -746 -7
-59 -33 -71 -103 -47 -42 14 -55 24 -71 55 -11 22 -20 47 -20 58 0 10 -4 22
-9 27 -5 6 -18 37 -29 70 -47 140 -95 271 -103 279 -5 6 -9 18 -9 27 0 10 -24
68 -53 129 l-53 112 -18 -103 c-10 -57 -29 -164 -42 -238 -14 -73 -27 -160
-31 -193 -9 -89 -25 -103 -113 -101 -80 3 -110 19 -110 60 0 13 9 77 20 141
10 64 40 245 65 401 55 342 62 377 82 396 18 18 19 18 122 0z m11224 -52 c-7
-2 -19 -2 -25 0 -7 3 -2 5 12 5 14 0 19 -2 13 -5z m33 -52 c0 -12 -9 -21 -23
-24 -26 -5 -31 8 -7 17 8 3 12 10 9 16 -3 5 0 10 7 10 8 0 14 -9 14 -19z m-66
-31 c0 -5 -5 -10 -11 -10 -5 0 -7 5 -4 10 3 6 8 10 11 10 2 0 4 -4 4 -10z
m315 -40 c3 -5 1 -10 -4 -10 -6 0 -11 5 -11 10 0 6 2 10 4 10 3 0 8 -4 11 -10z
m-10563 -51 c10 -5 18 -19 18 -30 0 -17 -35 -200 -59 -311 -17 -77 -79 -402
-102 -531 -6 -37 -20 -79 -32 -93 -20 -25 -23 -26 -90 -20 -83 8 -107 19 -107
50 0 18 31 193 56 311 2 11 8 45 14 75 63 333 104 519 120 549 12 23 15 23 88
17 41 -4 84 -12 94 -17z m10448 -10 c0 -11 -4 -18 -10 -14 -5 3 -7 12 -3 20 7
21 13 19 13 -6z m-10051 -65 c91 -20 204 -46 251 -58 l85 -21 -2 -59 c-3 -95
-19 -119 -253 -376 -108 -119 -230 -263 -230 -271 0 -4 75 -21 168 -39 92 -18
175 -36 186 -42 16 -9 17 -17 12 -61 -10 -75 -30 -115 -61 -123 -27 -7 -105 4
-275 36 -52 10 -129 24 -170 30 -105 16 -150 31 -161 52 -17 32 36 195 69 210
4 2 34 35 67 73 33 39 66 77 75 85 8 8 37 42 65 75 27 33 52 62 56 65 24 19
159 186 156 194 -4 13 -32 20 -152 41 -105 19 -149 35 -158 59 -7 18 20 135
35 153 16 20 56 16 237 -23z m11143 -24 c2 -22 2 -40 0 -40 -8 0 -32 72 -27
81 11 17 23 0 27 -41z m-1072 1 c0 -20 -13 -41 -21 -35 -15 9 -10 44 6 44 8 0
15 -4 15 -9z m-53 -43 c-3 -7 -5 -2 -5 12 0 14 2 19 5 13 2 -7 2 -19 0 -25z
m1393 -9 c0 -11 -4 -17 -10 -14 -5 3 -10 13 -10 21 0 8 5 14 10 14 6 0 10 -9
10 -21z m10 -50 c0 -6 -4 -7 -10 -4 -5 3 -10 11 -10 16 0 6 5 7 10 4 6 -3 10
-11 10 -16z m-2537 -14 c-12 -9 -19 -10 -22 -3 -4 12 20 29 32 21 4 -3 0 -11
-10 -18z m-8149 -64 c110 -33 204 -65 209 -70 14 -14 -2 -138 -20 -156 -20
-20 -59 -19 -150 6 -42 12 -86 23 -97 24 -12 2 -31 7 -42 10 -20 6 -23 1 -33
-45 -14 -67 -14 -105 2 -118 6 -5 53 -22 102 -37 50 -15 110 -34 134 -43 l44
-15 -6 -70 c-7 -80 -27 -109 -73 -109 -16 0 -76 14 -134 31 -98 29 -106 30
-117 14 -7 -9 -13 -27 -13 -39 0 -11 -3 -42 -6 -67 -8 -56 -6 -57 160 -103 65
-18 124 -38 129 -43 13 -13 10 -95 -4 -139 -14 -43 -46 -56 -97 -38 -21 8 -78
23 -128 35 -123 30 -233 60 -271 77 -24 10 -33 20 -33 38 0 13 18 113 39 222
22 110 45 240 51 289 16 126 70 387 83 403 15 19 43 13 271 -57z m9320 37 c11
-16 13 -25 4 -35 -17 -21 -26 -15 -30 22 -5 40 4 45 26 13z m1364 -3 c-3 -3
-9 2 -12 12 -6 14 -5 15 5 6 7 -7 10 -15 7 -18z m-2758 -30 c0 -8 -4 -15 -10
-15 -5 0 -10 7 -10 15 0 8 5 15 10 15 6 0 10 -7 10 -15z m1263 -81 c-8 -22
-23 -6 -23 24 1 25 2 26 15 9 7 -11 11 -25 8 -33z m-923 -6 c0 -5 -4 -8 -10
-8 -5 0 -10 10 -10 23 0 18 2 19 10 7 5 -8 10 -18 10 -22z m1804 3 c3 -5 -1
-14 -9 -21 -13 -10 -15 -9 -15 9 0 21 14 28 24 12z m-2124 -11 c0 -5 -2 -10
-4 -10 -3 0 -8 5 -11 10 -3 6 -1 10 4 10 6 0 11 -4 11 -10z m1270 -20 c0 -5
-5 -10 -11 -10 -5 0 -7 5 -4 10 3 6 8 10 11 10 2 0 4 -4 4 -10z m-8783 -26
c21 -9 52 -22 69 -30 23 -9 36 -24 48 -56 40 -112 117 -349 162 -500 27 -93
52 -168 55 -168 4 0 9 12 12 28 2 15 12 61 20 102 9 41 25 125 37 185 32 173
59 263 80 270 21 7 96 -20 124 -44 21 -19 20 -38 -18 -246 -35 -189 -121 -597
-143 -678 -8 -32 -37 -38 -95 -20 -71 23 -97 40 -104 72 -3 14 -9 42 -14 61
-5 19 -17 69 -26 110 -15 67 -47 170 -130 425 -24 74 -44 113 -44 89 -1 -46
-91 -548 -100 -559 -27 -32 -154 -3 -169 39 -5 12 0 56 11 106 10 47 21 105
23 130 3 25 16 113 30 195 14 83 34 206 45 275 37 240 43 250 127 214z m9629
-11 c-10 -10 -19 5 -10 18 6 11 8 11 12 0 2 -7 1 -15 -2 -18z m150 -20 c-10
-10 -19 5 -10 18 6 11 8 11 12 0 2 -7 1 -15 -2 -18z m-1019 -35 c-3 -7 -5 -2
-5 12 0 14 2 19 5 13 2 -7 2 -19 0 -25z m1442 6 c-6 -7 -17 -10 -25 -7 -10 4
-14 -3 -15 -23 -1 -16 -1 -32 0 -36 2 -15 -17 -8 -23 8 -12 30 -6 51 17 61 31
15 59 13 46 -3z m-844 -4 c3 -5 -1 -10 -9 -10 -9 0 -16 5 -16 10 0 6 4 10 9
10 6 0 13 -4 16 -10z m-57 -87 c7 -32 6 -47 -4 -60 -7 -10 -14 -13 -14 -8 -1
6 -5 29 -9 52 -5 27 -4 46 2 52 14 14 14 13 25 -36z m392 27 c0 -5 -2 -10 -4
-10 -3 0 -8 5 -11 10 -3 6 -1 10 4 10 6 0 11 -4 11 -10z m550 -10 c0 -5 -2
-10 -4 -10 -3 0 -8 5 -11 10 -3 6 -1 10 4 10 6 0 11 -4 11 -10z m-260 -15 c0
-8 -7 -15 -15 -15 -8 0 -15 7 -15 15 0 8 7 15 15 15 8 0 15 -7 15 -15z m160
-9 c0 -2 3 -11 6 -20 4 -11 0 -16 -13 -16 -12 0 -19 7 -19 20 0 11 6 20 13 20
7 0 13 -2 13 -4z m-260 -40 c0 -3 -4 -8 -10 -11 -5 -3 -10 -1 -10 4 0 6 5 11
10 11 6 0 10 -2 10 -4z m-495 -26 c-3 -5 -10 -10 -16 -10 -5 0 -9 5 -9 10 0 6
7 10 16 10 8 0 12 -4 9 -10z m225 -45 c0 -14 -4 -25 -9 -25 -5 0 -11 11 -13
25 -4 17 -1 25 8 25 8 0 14 -11 14 -25z m-284 -221 c-4 -12 -10 -14 -17 -7 -5
5 -7 17 -3 27 4 12 10 14 17 7 5 -5 7 -17 3 -27z m-11633 -100 c83 -13 167
-45 167 -62 0 -17 -24 -31 -39 -23 -21 11 -162 38 -236 46 -80 9 -112 36 -64
53 23 9 42 7 172 -14z m224 -55 c12 -12 -20 -89 -37 -89 -6 0 -10 23 -10 50 0
41 3 50 18 50 10 0 23 -5 29 -11z m11373 -10 c0 -5 -4 -9 -10 -9 -5 0 -10 7
-10 16 0 8 5 12 10 9 6 -3 10 -10 10 -16z m-400 1 c0 -5 -4 -10 -10 -10 -5 0
-10 5 -10 10 0 6 5 10 10 10 6 0 10 -4 10 -10z m-10901 -24 c8 -9 10 -29 6
-53 l-6 -38 18 35 c14 27 25 36 49 38 69 7 87 -79 26 -124 -18 -14 -62 -6 -69
12 -3 8 -16 14 -30 14 -57 0 -76 36 -57 108 7 25 45 30 63 8z m11321 -38 c0
-5 -4 -8 -10 -8 -5 0 -10 10 -10 23 0 18 2 19 10 7 5 -8 10 -18 10 -22z
m-11116 -6 c3 -5 20 -7 37 -4 l32 5 -6 -54 c-9 -71 -20 -80 -86 -72 l-53 6 6
44 c3 24 10 53 16 63 11 20 44 27 54 12z m11136 -54 c0 -5 -4 -8 -10 -8 -5 0
-10 10 -10 23 0 18 2 19 10 7 5 -8 10 -18 10 -22z m-10835 -37 c149 -27 172
-36 154 -57 -15 -18 -25 -17 -214 16 -71 12 -134 26 -139 30 -5 5 -6 16 -2 25
7 20 19 19 201 -14z m-1695 -161 c52 -6 97 -14 101 -18 4 -4 -1 -63 -11 -132
-10 -69 -20 -154 -21 -190 l-4 -65 100 -12 c55 -8 115 -14 134 -16 l34 -2 3
59 c4 76 49 174 96 209 116 89 303 100 448 27 53 -27 78 -49 123 -110 14 -20
17 -21 12 -5 -3 10 -9 39 -12 64 l-6 44 29 -7 c15 -4 52 -22 80 -39 46 -28 54
-38 64 -77 6 -25 17 -67 25 -95 8 -27 21 -77 30 -109 l16 -59 31 54 c46 81
120 169 142 169 11 0 48 -5 83 -11 44 -8 63 -15 63 -26 0 -8 -28 -49 -63 -92
-110 -134 -150 -193 -182 -270 -34 -85 -51 -95 -109 -67 -48 23 -63 44 -81
116 -8 36 -26 110 -40 165 -41 170 -41 169 -48 101 -9 -89 -14 -91 -154 -77
-65 6 -129 13 -143 15 -127 19 -140 19 -140 -1 0 -21 30 -53 67 -72 33 -17 72
-13 109 10 31 19 42 20 121 12 106 -10 114 -22 53 -83 -46 -46 -129 -88 -194
-96 -85 -12 -275 45 -335 99 -13 12 -37 42 -52 66 l-28 44 -11 -27 c-5 -15
-10 -34 -10 -42 0 -9 -5 -24 -10 -35 -13 -24 -49 -24 -185 -3 -55 8 -151 21
-213 28 -64 7 -117 17 -121 24 -4 6 -4 38 0 69 5 32 10 85 13 118 2 33 7 78
11 100 7 48 11 78 20 165 10 98 6 96 165 80z m1712 -356 l90 -17 -5 -46 c-5
-62 -87 -451 -98 -473 -6 -11 -21 -18 -37 -18 -43 1 -184 28 -193 37 -5 5 0
51 12 104 11 51 31 152 45 223 13 70 29 146 35 167 14 46 19 47 151 23z m231
1 c40 -6 40 -5 21 -97 -5 -27 -77 -98 -98 -98 -29 1 -37 16 -25 44 13 27 8 37
-24 49 -10 3 10 86 25 104 5 7 22 10 36 8 15 -2 44 -7 65 -10z m319 -86 c66
-14 151 -54 185 -88 38 -38 64 -100 51 -124 -9 -17 -17 -19 -67 -14 -75 8
-119 25 -126 48 -9 27 -56 49 -105 49 -29 0 -40 -4 -40 -15 0 -18 34 -36 119
-64 90 -29 147 -65 178 -112 33 -50 29 -112 -14 -173 -45 -65 -89 -81 -213
-81 -116 0 -175 16 -253 65 -51 32 -90 95 -85 138 3 26 5 27 63 25 96 -3 125
-11 125 -34 0 -26 56 -59 103 -59 62 0 40 44 -33 65 -14 4 -49 18 -78 31 -29
13 -56 24 -61 24 -16 0 -79 69 -88 97 -26 73 39 179 126 207 90 29 133 32 213
15z m11218 -739 c0 -5 -6 -10 -14 -10 -8 0 -18 5 -21 10 -3 6 3 10 14 10 12 0
21 -4 21 -10z m-2127 -2797 c-7 -2 -21 -2 -30 0 -10 3 -4 5 12 5 17 0 24 -2
18 -5z m1904 1 c-3 -3 -12 -4 -19 -1 -8 3 -5 6 6 6 11 1 17 -2 13 -5z m-2230
-56 c-3 -8 -6 -5 -6 6 -1 11 2 17 5 13 3 -3 4 -12 1 -19z m780 16 c-3 -3 -12
-4 -19 -1 -8 3 -5 6 6 6 11 1 17 -2 13 -5z m-382 -13 c3 -5 1 -12 -5 -16 -5
-3 -10 1 -10 9 0 18 6 21 15 7z m575 -1 c0 -5 -4 -10 -10 -10 -5 0 -10 5 -10
10 0 6 5 10 10 10 6 0 10 -4 10 -10z m-1020 -10 c0 -5 -7 -10 -16 -10 -8 0
-12 5 -9 10 3 6 10 10 16 10 5 0 9 -4 9 -10z m383 3 c-7 -2 -19 -2 -25 0 -7 3
-2 5 12 5 14 0 19 -2 13 -5z m-1223 -23 c0 -11 -4 -20 -9 -20 -5 0 -7 9 -4 20
3 11 7 20 9 20 2 0 4 -9 4 -20z m-263 -10 c3 -10 2 -11 -4 -4 -4 6 -15 14 -23
17 -11 5 -9 6 4 4 11 -1 21 -9 23 -17z m383 10 c0 -5 -2 -10 -4 -10 -3 0 -8 5
-11 10 -3 6 -1 10 4 10 6 0 11 -4 11 -10z m157 4 c-3 -3 -12 -4 -19 -1 -8 3
-5 6 6 6 11 1 17 -2 13 -5z m53 2 c0 -3 -4 -8 -10 -11 -5 -3 -10 -1 -10 4 0 6
5 11 10 11 6 0 10 -2 10 -4z m-300 -16 c0 -5 -4 -10 -10 -10 -5 0 -10 5 -10
10 0 6 5 10 10 10 6 0 10 -4 10 -10z m-210 -10 c0 -5 -4 -10 -10 -10 -5 0 -10
5 -10 10 0 6 5 10 10 10 6 0 10 -4 10 -10z m2588 -98 c8 -6 2 -9 -17 -9 -17 0
-28 4 -25 9 7 10 25 10 42 0z m152 -7 c0 -8 -2 -15 -4 -15 -2 0 -6 7 -10 15
-3 8 -1 15 4 15 6 0 10 -7 10 -15z m180 6 c0 -11 -49 -21 -55 -10 -3 4 7 10
22 12 16 2 29 5 31 6 1 0 2 -3 2 -8z m90 -6 c0 -8 -7 -15 -16 -15 -14 0 -14 3
-4 15 7 8 14 15 16 15 2 0 4 -7 4 -15z m-347 -12 c-7 -2 -21 -2 -30 0 -10 3
-4 5 12 5 17 0 24 -2 18 -5z m-2000 -10 c-7 -2 -19 -2 -25 0 -7 3 -2 5 12 5
14 0 19 -2 13 -5z m1902 -73 c3 -5 1 -10 -4 -10 -6 0 -11 5 -11 10 0 6 2 10 4
10 3 0 8 -4 11 -10z m160 0 c3 -5 1 -10 -4 -10 -6 0 -11 5 -11 10 0 6 2 10 4
10 3 0 8 -4 11 -10z m-1788 -32 c-3 -7 -5 -2 -5 12 0 14 2 19 5 13 2 -7 2 -19
0 -25z m1443 12 c-19 -13 -30 -13 -30 0 0 6 10 10 23 10 18 0 19 -2 7 -10z
m1100 0 c0 -5 -5 -10 -11 -10 -5 0 -7 5 -4 10 3 6 8 10 11 10 2 0 4 -4 4 -10z
m40 -20 c0 -5 -4 -10 -10 -10 -5 0 -10 5 -10 10 0 6 5 10 10 10 6 0 10 -4 10
-10z m-3043 -22 c-3 -8 -6 -5 -6 6 -1 11 2 17 5 13 3 -3 4 -12 1 -19z m708
-48 c-3 -5 -10 -10 -16 -10 -5 0 -9 5 -9 10 0 6 7 10 16 10 8 0 12 -4 9 -10z
m1405 -50 c0 -5 -2 -10 -4 -10 -3 0 -8 5 -11 10 -3 6 -1 10 4 10 6 0 11 -4 11
-10z m-125 -10 c3 -5 1 -10 -4 -10 -6 0 -11 5 -11 10 0 6 2 10 4 10 3 0 8 -4
11 -10z m551 -67 c-10 -10 -19 5 -10 18 6 11 8 11 12 0 2 -7 1 -15 -2 -18z
m466 -5 c-7 -7 -12 -8 -12 -2 0 14 12 26 19 19 2 -3 -1 -11 -7 -17z m-177 2
c3 -5 -1 -10 -9 -10 -9 0 -16 5 -16 10 0 6 4 10 9 10 6 0 13 -4 16 -10z m100
0 c18 -8 17 -9 -7 -9 -16 -1 -28 4 -28 9 0 12 8 12 35 0z m130 0 c-3 -5 -14
-10 -23 -9 -14 0 -13 2 3 9 27 11 27 11 20 0z m-3412 -147 c-7 -2 -19 -2 -25
0 -7 3 -2 5 12 5 14 0 19 -2 13 -5z m-2498 -96 c62 -19 101 -47 119 -84 30
-63 16 -144 -29 -165 -14 -6 -25 -17 -25 -23 0 -19 -36 -46 -53 -39 -18 7 -31
39 -22 54 3 5 2 10 -3 10 -16 0 -78 -29 -63 -30 11 0 11 -3 1 -15 -7 -8 -22
-13 -34 -11 -11 3 -27 5 -33 5 -7 1 -13 10 -13 21 0 16 -6 20 -32 19 -30 0
-31 -1 -10 -9 40 -17 27 -38 -27 -42 -27 -1 -47 0 -44 4 2 5 -3 8 -11 8 -8 0
-18 -5 -21 -10 -3 -5 -19 -10 -35 -10 -16 0 -31 -4 -34 -8 -2 -4 -27 -9 -54
-10 -38 -1 -51 2 -56 14 -4 10 -15 14 -33 12 -23 -2 -27 0 -25 17 3 19 3 19
-19 -2 -19 -19 -25 -20 -43 -8 -26 16 -104 26 -112 14 -3 -5 -12 -5 -22 -1 -9
5 -87 6 -172 3 -85 -3 -156 -4 -158 -1 -1 3 -17 4 -36 2 -35 -4 -59 14 -32 24
9 3 16 12 16 20 0 13 12 18 33 15 4 0 7 6 7 15 0 12 -5 14 -17 9 -25 -11 -59
-7 -91 9 -27 14 -53 14 -137 1 -22 -3 -47 -6 -55 -5 -8 0 -36 1 -62 1 -26 0
-50 4 -53 10 -4 5 -3 9 2 8 33 -6 54 4 68 32 9 17 15 32 13 34 -2 1 -19 6 -38
9 -26 5 -31 4 -20 -3 8 -6 10 -11 4 -11 -6 0 -20 11 -30 25 -10 14 -26 25 -34
25 -13 0 -13 1 0 10 22 14 30 12 30 -7 1 -17 1 -17 14 0 12 15 26 17 90 15 42
-2 76 0 76 4 0 4 10 8 23 8 12 0 173 6 357 15 874 39 881 39 935 22z m5592 7
c-3 -3 -12 -4 -19 -1 -8 3 -5 6 6 6 11 1 17 -2 13 -5z m96 -1 c-7 -2 -21 -2
-30 0 -10 3 -4 5 12 5 17 0 24 -2 18 -5z m184 1 c-3 -3 -12 -4 -19 -1 -8 3 -5
6 6 6 11 1 17 -2 13 -5z m40 0 c-3 -3 -12 -4 -19 -1 -8 3 -5 6 6 6 11 1 17 -2
13 -5z m-2634 -21 c-7 -2 -19 -2 -25 0 -7 3 -2 5 12 5 14 0 19 -2 13 -5z
m-1216 -9 c-3 -3 -12 -4 -19 -1 -8 3 -5 6 6 6 11 1 17 -2 13 -5z m-360 -10
c-3 -3 -12 -4 -19 -1 -8 3 -5 6 6 6 11 1 17 -2 13 -5z m-2465 -286 c-6 -6 -16
-7 -22 -3 -9 6 -9 9 1 16 17 10 34 0 21 -13z m73 3 c-3 -6 -11 -8 -17 -5 -6 4
-5 9 3 15 16 10 23 4 14 -10z m363 -110 c3 -8 -1 -12 -9 -9 -7 2 -15 10 -17
17 -3 8 1 12 9 9 7 -2 15 -10 17 -17z"/>
<path d="M13755 14750 c-3 -5 -1 -10 4 -10 6 0 11 5 11 10 0 6 -2 10 -4 10 -3
0 -8 -4 -11 -10z"/>
<path d="M13760 14720 c0 -5 5 -10 11 -10 5 0 7 5 4 10 -3 6 -8 10 -11 10 -2
0 -4 -4 -4 -10z"/>
<path d="M13300 14670 c0 -5 5 -10 10 -10 6 0 10 5 10 10 0 6 -4 10 -10 10 -5
0 -10 -4 -10 -10z"/>
<path d="M12775 14550 c-3 -5 -1 -10 4 -10 6 0 11 5 11 10 0 6 -2 10 -4 10 -3
0 -8 -4 -11 -10z"/>
<path d="M14004 17030 c-5 -5 -34 -15 -64 -21 -30 -6 -72 -15 -94 -19 -21 -4
-41 -12 -45 -17 -3 -5 -22 -17 -41 -26 -54 -27 -97 -54 -118 -74 -10 -10 -50
-47 -88 -83 -38 -36 -78 -83 -88 -104 -47 -100 -69 -261 -46 -346 48 -176 159
-304 324 -370 75 -30 176 -54 176 -41 0 4 26 12 58 20 31 7 64 19 72 26 8 7
32 23 53 34 48 27 56 33 131 106 104 103 125 142 133 249 13 163 -84 357 -317
635 -11 13 -20 28 -20 33 0 11 -14 10 -26 -2z m-119 -142 c3 -7 14 -71 25
-143 12 -71 25 -155 31 -185 5 -30 12 -77 15 -105 8 -64 9 -66 44 -59 17 4 41
0 60 -9 27 -14 32 -14 37 -1 7 19 39 18 47 -1 3 -8 12 -15 19 -15 8 0 20 -6
26 -14 7 -8 22 -11 38 -8 18 3 24 1 19 -7 -4 -7 0 -23 9 -37 9 -14 15 -27 13
-29 -2 -1 -13 -7 -25 -14 -16 -8 -22 -8 -26 2 -2 8 -40 13 -124 15 l-121 4
-12 -74 c-6 -40 -13 -79 -13 -87 -1 -8 -7 -16 -14 -18 -16 -6 -27 57 -20 122
l5 53 -46 5 c-26 3 -114 6 -196 7 -169 1 -216 13 -216 53 0 17 10 28 36 40 19
10 39 15 44 12 5 -3 27 -1 50 4 24 5 54 6 72 0 17 -4 47 -8 67 -8 20 0 62 -1
94 -1 69 -1 100 7 90 23 -4 7 -8 17 -9 22 -19 93 -27 132 -36 195 -6 41 -11
85 -12 97 -2 13 -6 26 -9 30 -9 8 -9 106 -1 127 7 19 33 21 39 4z"/>
<path d="M11863 16283 c9 -2 23 -2 30 0 6 3 -1 5 -18 5 -16 0 -22 -2 -12 -5z"/>
<path d="M10736 14211 c-4 -5 -2 -12 3 -15 5 -4 12 -2 15 3 4 5 2 12 -3 15 -5
4 -12 2 -15 -3z"/>
<path d="M9359 13348 c-11 -20 -10 -21 3 -11 8 7 18 10 22 6 4 -4 4 0 0 10 -8
22 -11 22 -25 -5z"/>
<path d="M10231 13164 c0 -11 3 -14 6 -6 3 7 2 16 -1 19 -3 4 -6 -2 -5 -13z"/>
<path d="M9757 12953 c-11 -17 13 -28 26 -13 9 10 9 11 0 6 -6 -3 -13 -1 -15
6 -3 9 -6 9 -11 1z"/>
<path d="M9788 12850 c-9 -10 -24 -29 -32 -42 -14 -22 -14 -26 -1 -44 15 -19
15 -19 30 0 8 10 12 23 9 27 -3 5 2 19 10 31 29 42 17 63 -16 28z"/>
<path d="M9930 12848 c0 -4 7 -8 15 -8 8 0 15 4 15 8 0 5 -7 9 -15 9 -8 0 -15
-4 -15 -9z"/>
<path d="M9861 11181 c-10 -6 -9 -10 5 -15 20 -8 25 -4 16 11 -4 7 -13 9 -21
4z"/>
<path d="M9888 11143 c7 -3 16 -2 19 1 4 3 -2 6 -13 5 -11 0 -14 -3 -6 -6z"/>
<path d="M9890 11110 c0 -5 5 -10 10 -10 6 0 10 5 10 10 0 6 -4 10 -10 10 -5
0 -10 -4 -10 -10z"/>
<path d="M7330 10110 c0 -5 5 -10 11 -10 5 0 7 5 4 10 -3 6 -8 10 -11 10 -2 0
-4 -4 -4 -10z"/>
<path d="M7658 9653 c7 -3 16 -2 19 1 4 3 -2 6 -13 5 -11 0 -14 -3 -6 -6z"/>
<path d="M7690 9560 c0 -5 5 -10 10 -10 6 0 10 5 10 10 0 6 -4 10 -10 10 -5 0
-10 -4 -10 -10z"/>
<path d="M19236 7493 c5 -5 12 -12 16 -18 4 -6 8 -2 8 8 0 9 -7 17 -17 17 -9
0 -12 -3 -7 -7z"/>
<path d="M19160 7416 c0 -8 -8 -20 -17 -25 -10 -6 -13 -11 -7 -11 18 0 47 37
35 45 -6 3 -11 -1 -11 -9z"/>
<path d="M19430 7410 c-8 -5 -10 -10 -5 -10 6 0 17 5 25 10 8 5 11 10 5 10 -5
0 -17 -5 -25 -10z"/>
<path d="M19109 7400 c-9 -5 -20 -26 -23 -45 -4 -20 -11 -33 -17 -30 -5 4 -9
1 -9 -5 0 -7 8 -9 23 -4 26 8 39 24 32 42 -3 7 0 22 5 33 12 22 11 22 -11 9z"/>
<path d="M19133 7186 c7 -17 -17 -28 -30 -15 -7 7 -12 3 -16 -11 -4 -17 -3
-19 8 -10 10 8 15 8 20 0 5 -8 11 -5 21 7 16 22 18 43 3 43 -6 0 -9 -6 -6 -14z"/>
<path d="M19497 7136 c-4 -9 -3 -15 2 -12 5 3 12 -5 15 -19 6 -24 36 -36 36
-14 0 5 -4 7 -10 4 -5 -3 -10 0 -10 7 0 8 -6 22 -13 32 -13 17 -14 18 -20 2z"/>
<path d="M19155 7070 c3 -5 8 -10 11 -10 2 0 4 5 4 10 0 6 -5 10 -11 10 -5 0
-7 -4 -4 -10z"/>
<path d="M19570 7062 c0 -12 5 -24 10 -27 6 -4 8 -10 5 -15 -3 -5 -1 -11 5
-15 5 -3 10 2 10 13 0 15 5 18 25 14 14 -2 23 -8 20 -12 -3 -4 4 -10 15 -13
11 -3 20 -12 20 -21 0 -20 14 -21 30 -1 10 12 9 15 -5 15 -11 0 -15 5 -11 16
3 8 2 13 -3 10 -5 -3 -11 1 -15 9 -3 8 -17 15 -31 15 -14 0 -37 7 -50 16 -24
16 -25 15 -25 -4z"/>
<path d="M19630 6970 c0 -5 5 -10 11 -10 5 0 7 5 4 10 -3 6 -8 10 -11 10 -2 0
-4 -4 -4 -10z"/>
<path d="M19710 6960 c0 -5 4 -10 9 -10 6 0 13 5 16 10 3 6 -1 10 -9 10 -9 0
-16 -4 -16 -10z"/>
<path d="M19315 6940 c-3 -5 1 -10 10 -10 9 0 13 5 10 10 -3 6 -8 10 -10 10
-2 0 -7 -4 -10 -10z"/>
<path d="M18070 6929 c0 -5 6 -7 13 -3 9 6 9 4 -1 -8 -10 -13 -9 -16 8 -21 25
-6 29 28 4 37 -21 8 -24 8 -24 -5z"/>
<path d="M19230 6871 c0 -11 61 -33 69 -25 3 3 -3 12 -13 20 -16 11 -21 11
-28 1 -6 -9 -8 -9 -8 1 0 6 -4 12 -10 12 -5 0 -10 -4 -10 -9z"/>
<path d="M18047 6863 c-4 -3 -7 -11 -7 -17 0 -6 5 -4 10 4 6 10 10 11 10 3 0
-7 4 -13 8 -13 5 0 9 7 9 15 0 15 -18 20 -30 8z"/>
<path d="M19408 6845 c-4 -16 -1 -25 8 -25 14 0 23 19 16 38 -7 20 -19 14 -24
-13z"/>
<path d="M18135 6850 c-3 -5 -2 -10 4 -10 5 0 13 5 16 10 3 6 2 10 -4 10 -5 0
-13 -4 -16 -10z"/>
<path d="M19305 6829 c-7 -10 21 -38 38 -39 10 0 9 8 -3 31 -12 21 -25 25 -35
8z"/>
<path d="M19435 6819 c-5 -14 -1 -27 10 -38 16 -15 17 -14 13 12 -3 15 -1 27
4 27 5 0 6 5 3 10 -10 16 -23 11 -30 -11z"/>
<path d="M18070 6820 c0 -14 15 -19 29 -11 9 6 7 10 -8 14 -12 3 -21 1 -21 -3z"/>
<path d="M18036 6805 c4 -8 10 -15 15 -15 4 0 6 7 3 15 -4 8 -10 15 -15 15 -4
0 -6 -7 -3 -15z"/>
<path d="M19630 6754 c0 -8 5 -12 10 -9 6 3 10 10 10 16 0 5 -4 9 -10 9 -5 0
-10 -7 -10 -16z"/>
<path d="M18132 6673 c2 -9 11 -17 21 -19 21 -3 22 3 3 22 -19 19 -28 18 -24
-3z"/>
<path d="M19510 6670 c-13 -8 -12 -10 3 -10 9 0 17 5 17 10 0 12 -1 12 -20 0z"/>
<path d="M18090 6660 c0 -5 5 -10 10 -10 6 0 10 5 10 10 0 6 -4 10 -10 10 -5
0 -10 -4 -10 -10z"/>
<path d="M18100 6620 c0 -5 7 -10 16 -10 8 0 12 5 9 10 -3 6 -10 10 -16 10 -5
0 -9 -4 -9 -10z"/>
<path d="M18251 6504 c0 -11 3 -14 6 -6 3 7 2 16 -1 19 -3 4 -6 -2 -5 -13z"/>
<path d="M17275 7390 c-3 -5 -1 -10 4 -10 6 0 11 5 11 10 0 6 -2 10 -4 10 -3
0 -8 -4 -11 -10z"/>
<path d="M6335 6842 c-31 -76 -105 -542 -91 -577 10 -26 202 -18 267 12 63 28
125 87 157 147 22 43 27 63 26 126 -2 151 -75 240 -234 283 -96 26 -117 28
-125 9z"/>
<path d="M7925 4983 c-11 -3 -28 -12 -37 -21 -18 -15 -24 -42 -10 -42 4 0 36
-5 71 -11 70 -11 87 -4 76 31 -5 17 -64 54 -77 49 -2 -1 -12 -4 -23 -6z"/>
<path d="M13436 325 c-3 -9 0 -15 9 -15 8 0 15 7 15 15 0 8 -4 15 -9 15 -5 0
-11 -7 -15 -15z"/>
<path d="M14839 20756 c32 -34 144 -91 216 -110 68 -17 70 -17 161 56 32 26
68 54 79 62 18 14 -5 15 -229 16 l-249 0 22 -24z"/>
<path d="M20657 15894 c-66 -40 -121 -74 -123 -74 -2 0 -34 -18 -70 -40 -36
-22 -67 -40 -69 -40 -2 0 -32 -17 -66 -38 -35 -21 -107 -60 -159 -87 -52 -26
-100 -54 -108 -61 -7 -8 -18 -14 -23 -14 -16 0 -239 -151 -374 -253 -131 -99
-345 -307 -443 -431 -34 -43 -69 -85 -77 -93 -8 -8 -15 -18 -15 -22 0 -4 -8
-16 -18 -27 -30 -32 -105 -142 -145 -212 -46 -82 -172 -339 -180 -367 -3 -11
-22 -65 -42 -120 -20 -55 -41 -116 -47 -135 -5 -19 -14 -51 -19 -70 -10 -35
-27 -111 -55 -245 -18 -90 -35 -255 -37 -371 -1 -52 -6 -90 -11 -86 -5 3 -6 0
-2 -6 3 -6 9 -86 11 -178 3 -91 7 -169 10 -173 2 -4 5 -32 6 -62 1 -30 7 -101
14 -159 8 -58 23 -186 35 -285 12 -99 31 -229 42 -290 10 -60 21 -126 24 -145
3 -19 11 -62 19 -95 7 -33 30 -143 50 -245 20 -102 43 -219 52 -260 9 -41 18
-88 19 -104 5 -36 22 -104 33 -131 5 -11 19 -64 31 -118 12 -53 26 -100 31
-103 6 -3 7 -14 4 -24 -3 -10 -1 -21 5 -25 6 -3 8 -11 4 -16 -3 -5 6 -33 19
-62 13 -28 34 -90 47 -136 12 -46 28 -98 35 -115 7 -17 25 -65 40 -106 15 -41
34 -91 42 -110 8 -19 18 -44 23 -55 61 -150 230 -514 273 -590 6 -11 25 -47
43 -80 61 -116 86 -160 103 -180 9 -11 22 -31 28 -45 6 -14 34 -53 62 -88 28
-35 51 -68 51 -73 0 -9 191 -201 295 -297 88 -80 115 -102 381 -298 30 -22 94
-60 142 -85 48 -24 89 -46 92 -49 3 -3 25 -16 50 -29 25 -13 52 -30 61 -37 8
-8 19 -14 22 -14 11 0 8 2608 -3 2628 -21 39 -90 206 -90 219 0 7 -6 24 -13
36 -8 12 -15 39 -16 60 -1 30 2 37 17 37 13 0 30 -27 64 -97 l46 -98 1 1233
c1 677 -3 1232 -7 1232 -4 0 -12 -4 -17 -9 -18 -16 -129 -49 -222 -66 -197
-36 -406 27 -516 156 -86 100 -122 227 -113 399 8 173 42 279 140 440 91 149
247 301 356 347 8 3 23 13 33 21 72 62 271 131 321 112 l26 -10 0 545 c0 300
-1 545 -2 544 -2 0 -56 -34 -121 -75z m90 -6570 c-3 -4 -2 -15 4 -25 8 -16 6
-19 -11 -19 -11 0 -20 -4 -20 -10 0 -5 11 -10 25 -10 14 0 25 -2 25 -4 0 -16
-14 -36 -26 -36 -20 0 -17 -17 6 -40 11 -11 20 -26 20 -34 0 -21 -23 -25 -37
-7 -12 14 -15 13 -36 -10 l-24 -26 -14 21 c-7 11 -15 32 -16 46 -4 50 -14 72
-27 67 -8 -3 -16 3 -19 14 -4 16 -2 19 14 14 10 -4 19 -2 19 4 0 6 7 8 16 4
13 -5 13 -7 2 -14 -13 -9 -11 -9 35 -13 6 -1 11 5 9 13 -2 8 0 27 3 42 5 23
12 29 32 29 15 0 23 -3 20 -6z m-183 -146 c-3 -4 -9 -8 -15 -8 -5 0 -9 4 -9 8
0 5 7 9 15 9 8 0 12 -4 9 -9z"/>
<path d="M20680 9220 c0 -5 7 -10 15 -10 8 0 15 5 15 10 0 6 -7 10 -15 10 -8
0 -15 -4 -15 -10z"/>
<path d="M20655 14812 c-16 -1 -44 -10 -62 -18 -17 -7 -36 -14 -42 -14 -6 0
-37 -14 -68 -32 -32 -17 -69 -37 -83 -44 -48 -25 -180 -156 -239 -237 -78
-109 -123 -194 -157 -297 -26 -78 -29 -97 -28 -235 0 -131 3 -157 23 -207 44
-113 127 -199 229 -239 117 -46 328 -22 479 54 l68 34 3 591 c1 326 0 592 -3
592 -3 0 -17 -7 -30 -16 -24 -15 -25 -15 -25 2 0 11 7 28 15 38 8 11 15 23 15
26 0 7 -48 8 -95 2z"/>
<path d="M16985 7810 c-3 -5 -1 -10 4 -10 6 0 11 5 11 10 0 6 -2 10 -4 10 -3
0 -8 -4 -11 -10z"/>
<path d="M20485 7650 c3 -5 8 -10 11 -10 2 0 4 5 4 10 0 6 -5 10 -11 10 -5 0
-7 -4 -4 -10z"/>
<path d="M20740 7575 c0 -9 6 -12 15 -9 8 4 12 10 9 15 -8 14 -24 10 -24 -6z"/>
<path d="M17150 7530 c0 -5 7 -7 15 -4 8 4 15 8 15 10 0 2 -7 4 -15 4 -8 0
-15 -4 -15 -10z"/>
<path d="M20433 7456 c-11 -13 -7 -56 6 -56 13 0 36 20 24 20 -7 0 -13 5 -13
11 0 5 5 7 11 3 10 -6 28 11 29 26 0 12 -46 8 -57 -4z"/>
<path d="M20526 7435 c-11 -8 -16 -15 -10 -15 5 0 2 -5 -6 -10 -12 -7 -8 -10
15 -10 17 0 42 -7 58 -14 34 -18 35 -10 2 20 -14 13 -25 28 -25 34 0 14 -11
12 -34 -5z"/>
<path d="M20685 7349 c-8 -12 3 -49 15 -49 14 0 18 49 4 54 -7 3 -16 1 -19 -5z"/>
<path d="M20600 7320 c0 -5 7 -10 16 -10 8 0 12 5 9 10 -3 6 -10 10 -16 10 -5
0 -9 -4 -9 -10z"/>
<path d="M17010 237 c0 -27 12 -47 27 -47 12 0 13 3 4 13 -6 8 -9 16 -6 19 3
3 -1 11 -10 18 -12 10 -15 10 -15 -3z"/>
<path d="M17067 228 c-6 -17 10 -58 22 -58 19 0 23 21 7 39 -9 10 -13 21 -9
24 3 4 2 7 -4 7 -6 0 -13 -6 -16 -12z"/>
<path d="M17031 154 c0 -11 3 -14 6 -6 3 7 2 16 -1 19 -3 4 -6 -2 -5 -13z"/>
</g>
</svg>
